<svg width="45" height="30" viewBox="0 0 45 30" fill="none" xmlns="http://www.w3.org/2000/svg">
<rect x="1.40909" y="0.5" width="42.6364" height="29" rx="3.5" fill="#006FCF" stroke="#F3F3F3"/>
<path fill-rule="evenodd" clip-rule="evenodd" d="M9.8344 21.6703V15.4944H16.8491L17.6017 16.409L18.3792 15.4944H43.8407V21.2444C43.8407 21.2444 43.1748 21.6641 42.4047 21.6703H28.3061L27.4576 20.6968V21.6703H24.6771V20.0084C24.6771 20.0084 24.2972 20.2404 23.4761 20.2404H22.5296V21.6703H18.3197L17.5681 20.7361L16.8051 21.6703H9.8344ZM1.66145 10.8397L3.2397 7.40186H5.96912L6.86479 9.32758V7.40186H10.2577L10.7909 8.79371L11.3078 7.40186H26.5385V8.10159C26.5385 8.10159 27.3391 7.40186 28.655 7.40186L33.5968 7.41799L34.477 9.31851V7.40186H37.3164L38.0978 8.49355V7.40186H40.9633V13.5778H38.0978L37.3489 12.4825V13.5778H33.1773L32.7577 12.6042H31.6363L31.2236 13.5778H28.3945C27.2623 13.5778 26.5385 12.8923 26.5385 12.8923V13.5778H22.2729L21.4263 12.6042V13.5778H5.56477L5.14554 12.6042H4.02763L3.61137 13.5778H1.66145V10.8397ZM1.66958 12.7875L3.79829 8.16321H5.41212L7.5388 12.7875H6.12237L5.73163 11.8615H3.44825L3.05548 12.7875H1.66958ZM5.28186 10.8576L4.58585 9.23942L3.88782 10.8576H5.28186ZM7.68535 12.7867V8.16243L9.65479 8.16926L10.8003 11.1507L11.9184 8.16243H13.872V12.7867H12.6347V9.37935L11.3231 12.7867H10.238L8.92269 9.37935V12.7867H7.68535ZM14.7186 12.7867V8.16243H18.7563V9.19681H15.969V9.98781H18.6912V10.9614H15.969V11.7828H18.7563V12.7867H14.7186ZM19.4726 12.7875V8.16321H22.2261C23.1384 8.16321 23.9559 8.69034 23.9559 9.66345C23.9559 10.4953 23.2667 11.0312 22.5985 11.0838L24.2266 12.7875H22.7145L21.2309 11.1447H20.7099V12.7875H19.4726ZM22.1243 9.19759H20.7099V10.1711H22.1427C22.3907 10.1711 22.7104 9.99158 22.7104 9.68436C22.7104 9.44557 22.4636 9.19759 22.1243 9.19759ZM25.7245 12.7867H24.4611V8.16243H25.7245V12.7867ZM28.7201 12.7867H28.4474C27.1279 12.7867 26.3268 11.8155 26.3268 10.4936C26.3268 9.13905 27.119 8.16243 28.7852 8.16243H30.1528V9.25766H28.7352C28.0588 9.25766 27.5805 9.75086 27.5805 10.505C27.5805 11.4006 28.1275 11.7767 28.9155 11.7767H29.2411L28.7201 12.7867ZM29.2838 12.7875L31.4125 8.16321H33.0264L35.153 12.7875H33.7366L33.3459 11.8615H31.0625L30.6697 12.7875H29.2838ZM32.8961 10.8576L32.2001 9.23942L31.5021 10.8576H32.8961ZM35.2975 12.7867V8.16243H36.8706L38.8793 11.0678V8.16243H40.1166V12.7867H38.5944L36.5349 9.80528V12.7867H35.2975ZM10.681 20.8793V16.255H14.7187V17.2894H11.9314V18.0804H14.6535V19.0539H11.9314V19.8753H14.7187V20.8793H10.681ZM30.4654 20.8793V16.255H34.503V17.2894H31.7157V18.0804H34.4249V19.0539H31.7157V19.8753H34.503V20.8793H30.4654ZM14.8753 20.8793L16.8412 18.5957L14.8285 16.255H16.3874L17.5861 17.702L18.7888 16.255H20.2867L18.3004 18.5671L20.2699 20.8793H18.7113L17.5474 19.4551L16.4118 20.8793H14.8753ZM20.4169 20.8801V16.2558H23.15C24.2715 16.2558 24.9267 16.9311 24.9267 17.8111C24.9267 18.8735 24.0913 19.4198 22.9893 19.4198H21.6868V20.8801H20.4169ZM23.0585 17.3015H21.6868V18.3664H23.0544C23.4158 18.3664 23.669 18.1426 23.669 17.834C23.669 17.5054 23.4145 17.3015 23.0585 17.3015ZM25.4639 20.8793V16.255H28.2174C29.1298 16.255 29.9473 16.7821 29.9473 17.7552C29.9473 18.5871 29.258 19.1229 28.5898 19.1756L30.2179 20.8793H28.7058L27.2223 19.2365H26.7013V20.8793H25.4639ZM28.1157 17.2894H26.7013V18.2629H28.134C28.382 18.2629 28.7018 18.0834 28.7018 17.7761C28.7018 17.5373 28.455 17.2894 28.1157 17.2894ZM35.0761 20.8793V19.8753H37.5524C37.9188 19.8753 38.0775 19.6903 38.0775 19.4874C38.0775 19.293 37.9193 19.0965 37.5524 19.0965H36.4334C35.4607 19.0965 34.919 18.5428 34.919 17.7115C34.919 16.97 35.4151 16.255 36.8605 16.255H39.2701L38.7491 17.2955H36.6651C36.2668 17.2955 36.1441 17.4908 36.1441 17.6773C36.1441 17.869 36.2957 18.0804 36.6 18.0804H37.7722C38.8565 18.0804 39.327 18.655 39.327 19.4076C39.327 20.2166 38.8027 20.8793 37.7132 20.8793H35.0761ZM39.4361 20.8793V19.8753H41.9124C42.2788 19.8753 42.4375 19.6903 42.4375 19.4874C42.4375 19.293 42.2793 19.0965 41.9124 19.0965H40.7934C39.8207 19.0965 39.279 18.5428 39.279 17.7115C39.279 16.97 39.7751 16.255 41.2205 16.255H43.6301L43.1091 17.2955H41.0251C40.6268 17.2955 40.5042 17.4908 40.5042 17.6773C40.5042 17.869 40.6557 18.0804 40.96 18.0804H42.1322C43.2165 18.0804 43.687 18.655 43.687 19.4076C43.687 20.2166 43.1627 20.8793 42.0732 20.8793H39.4361Z" fill="white"/>
</svg>
