<svg width="45" height="30" viewBox="0 0 45 30" fill="none" xmlns="http://www.w3.org/2000/svg">
<rect x="1.04547" y="0.5" width="42.6364" height="29" rx="3.5" fill="white" stroke="#F3F3F3"/>
<path d="M19.2342 20.9743V13.6751C19.2342 13.0302 19.4952 12.4118 19.9597 11.9558C20.4242 11.4998 21.0542 11.2437 21.7112 11.2437L23.9064 11.2467C24.5616 11.248 25.1896 11.5044 25.6524 11.9597C26.1152 12.415 26.3751 13.0319 26.375 13.6751V15.2284C26.375 15.8733 26.114 16.4918 25.6495 16.9478C25.185 17.4039 24.555 17.6601 23.898 17.6602H20.7952" stroke="#898B8F" stroke-width="0.8" stroke-linecap="round" stroke-linejoin="round"/>
<path d="M26.9886 11.2433H27.9409C28.2105 11.2433 28.4691 11.3484 28.6598 11.5356C28.8505 11.7227 28.9576 11.9766 28.9576 12.2413V17.6933" stroke="#898B8F" stroke-width="0.8" stroke-linecap="round" stroke-linejoin="round"/>
<path d="M30.7857 11.2384H31.73C32.2158 11.2382 32.6817 11.4274 33.0253 11.7644L35.2343 13.9329C35.3024 13.9997 35.3831 14.0527 35.472 14.0889C35.5609 14.1251 35.6562 14.1437 35.7524 14.1437C35.8487 14.1437 35.944 14.1251 36.0329 14.0889C36.1218 14.0527 36.2025 13.9997 36.2705 13.9329L38.4715 11.7727C38.6416 11.6058 38.8434 11.4735 39.0656 11.3832C39.2878 11.2929 39.526 11.2465 39.7664 11.2467H40.5343" stroke="#898B8F" stroke-width="0.8" stroke-linecap="round" stroke-linejoin="round"/>
<path d="M30.7857 17.6452H31.73C32.2158 17.6454 32.6817 17.4562 33.0253 17.1192L35.2343 14.9508C35.3718 14.816 35.5581 14.7402 35.7524 14.7402C35.9467 14.7402 36.1331 14.816 36.2705 14.9508L38.4715 17.1113C38.815 17.4482 39.2808 17.6375 39.7664 17.6373H40.5343" stroke="#898B8F" stroke-width="0.8" stroke-linecap="round" stroke-linejoin="round"/>
<path d="M13.6041 19.0305C13.3711 19.0313 13.1403 18.9868 12.9249 18.8996C12.7096 18.8123 12.5139 18.684 12.3494 18.5221L10.5369 16.7418C10.4728 16.6817 10.3875 16.6481 10.2988 16.6481C10.2101 16.6481 10.1249 16.6817 10.0608 16.7418L8.24218 18.527C8.07772 18.6891 7.88215 18.8177 7.66679 18.9052C7.45142 18.9927 7.22052 19.0375 6.98743 19.0369H6.6326L8.92926 21.2913C9.27372 21.6287 9.74046 21.8182 10.2271 21.8182C10.7137 21.8182 11.1804 21.6287 11.5249 21.2913L13.8261 19.032L13.6041 19.0305Z" fill="#32BCAD"/>
<path d="M6.98782 12.739C7.22091 12.7384 7.45181 12.7832 7.66718 12.8707C7.88255 12.9582 8.07811 13.0868 8.24256 13.2489L10.0611 15.0344C10.1244 15.0963 10.21 15.131 10.2992 15.131C10.3885 15.131 10.4741 15.0963 10.5373 15.0344L12.3494 13.2557C12.5137 13.0933 12.7092 12.9646 12.9246 12.877C13.14 12.7894 13.371 12.7447 13.6041 12.7454H13.8223L11.5211 10.4864C11.3506 10.3191 11.1483 10.1864 10.9256 10.0958C10.703 10.0052 10.4643 9.95862 10.2232 9.95862C9.98221 9.95862 9.74353 10.0052 9.52085 10.0958C9.29817 10.1864 9.09584 10.3191 8.92544 10.4864L6.6326 12.739H6.98782Z" fill="#32BCAD"/>
<path d="M15.7258 14.6143L14.3351 13.2492C14.3038 13.2618 14.2703 13.2684 14.2364 13.2687H13.604C13.275 13.2695 12.9595 13.3978 12.7263 13.6257L10.9143 15.4033C10.7511 15.5632 10.5299 15.653 10.2993 15.653C10.0687 15.653 9.84758 15.5632 9.68439 15.4033L7.86543 13.6189C7.63227 13.3909 7.31683 13.2625 6.98772 13.2616H6.21145C6.17946 13.2609 6.14784 13.2546 6.11805 13.2432L4.71862 14.6143C4.37489 14.9524 4.18185 15.4105 4.18185 15.8882C4.18185 16.3659 4.37489 16.824 4.71862 17.1622L6.11499 18.5329C6.14471 18.5212 6.17637 18.515 6.20839 18.5145H6.98772C7.31682 18.5135 7.63225 18.3851 7.86543 18.1571L9.68401 16.372C10.0128 16.0496 10.5858 16.0496 10.9143 16.372L12.7263 18.1504C12.9595 18.3782 13.275 18.5065 13.604 18.5073H14.2364C14.2703 18.5076 14.3038 18.5142 14.3351 18.5269L15.7258 17.1618C15.8962 16.9945 16.0315 16.7959 16.1237 16.5773C16.216 16.3587 16.2635 16.1244 16.2635 15.8878C16.2635 15.6512 16.216 15.4169 16.1237 15.1983C16.0315 14.9798 15.8962 14.7812 15.7258 14.6139" fill="#32BCAD"/>
<path d="M28.753 10.3986L28.3212 9.97435C28.2958 9.94937 28.2755 9.9197 28.2618 9.88704C28.248 9.85439 28.2409 9.81939 28.2409 9.78404C28.2409 9.74869 28.248 9.71369 28.2618 9.68103C28.2755 9.64838 28.2958 9.61871 28.3212 9.59372L28.753 9.16988C28.8045 9.11934 28.8744 9.09094 28.9473 9.09094C29.0201 9.09094 29.09 9.11934 29.1415 9.16988L29.5729 9.59372C29.5984 9.61871 29.6186 9.64838 29.6324 9.68103C29.6462 9.71369 29.6533 9.74869 29.6533 9.78404C29.6533 9.81939 29.6462 9.85439 29.6324 9.88704C29.6186 9.9197 29.5984 9.94937 29.5729 9.97435L29.1396 10.3986C29.1141 10.4236 29.0839 10.4434 29.0506 10.457C29.0173 10.4705 28.9816 10.4775 28.9455 10.4775C28.9095 10.4775 28.8738 10.4705 28.8405 10.457C28.8072 10.4434 28.777 10.4236 28.7515 10.3986" fill="#32BCAD"/>
<path d="M21.1221 20.354C21.0072 20.3589 20.8931 20.3759 20.7818 20.4047V20.8496C20.867 20.8789 20.9565 20.8936 21.0467 20.8932C21.2741 20.8932 21.3817 20.818 21.3817 20.6215C21.3817 20.4367 21.2936 20.354 21.1221 20.354ZM20.7053 21.1806V20.3003H20.7677L20.7742 20.3378C20.8901 20.3076 21.0089 20.2888 21.1286 20.2818C21.2116 20.2761 21.294 20.2996 21.361 20.348C21.4375 20.4104 21.4636 20.5111 21.4636 20.6208C21.4636 20.7305 21.4253 20.844 21.3181 20.9037C21.2363 20.9438 21.1458 20.9635 21.0544 20.9612C20.962 20.9606 20.8702 20.9468 20.7818 20.9202V21.1791L20.7053 21.1806Z" fill="#898B8F"/>
<path d="M22.0341 20.3512C21.8071 20.3512 21.7057 20.4211 21.7057 20.6176C21.7057 20.8074 21.8056 20.8931 22.0341 20.8931C22.2626 20.8931 22.3614 20.8239 22.3614 20.6278C22.3614 20.438 22.2614 20.3512 22.0341 20.3512ZM22.3265 20.8931C22.25 20.9464 22.1497 20.9618 22.0341 20.9618C21.9185 20.9618 21.8148 20.9453 21.7409 20.8931C21.6578 20.8356 21.6237 20.7428 21.6237 20.6229C21.6237 20.503 21.6578 20.4098 21.7409 20.3512C21.8148 20.299 21.9162 20.2825 22.0341 20.2825C22.152 20.2825 22.2511 20.299 22.3265 20.3512C22.4107 20.4098 22.4433 20.5053 22.4433 20.6214C22.4433 20.7375 22.4096 20.8356 22.3265 20.8931Z" fill="#898B8F"/>
<path d="M23.402 20.9437L23.1486 20.4098H23.1436L22.894 20.9437H22.824L22.556 20.3H22.6402L22.8649 20.8404H22.8703L23.1145 20.3H23.1846L23.4349 20.8404H23.4403L23.6596 20.3H23.7426L23.4724 20.9437H23.402Z" fill="#898B8F"/>
<path d="M24.2306 20.3498C24.0201 20.3498 23.9489 20.4419 23.9359 20.5753H24.5254C24.5188 20.4287 24.4423 20.3498 24.2306 20.3498ZM24.2279 20.9619C24.102 20.9619 24.0201 20.9439 23.955 20.8905C23.8785 20.8255 23.8528 20.7312 23.8528 20.623C23.8528 20.5148 23.8876 20.4099 23.9749 20.3476C24.0512 20.3004 24.1406 20.2777 24.2306 20.2826C24.3224 20.2771 24.4137 20.2988 24.4928 20.3449C24.5874 20.4073 24.6057 20.517 24.6057 20.6418H23.934C23.9366 20.7744 23.9807 20.8916 24.2352 20.8916C24.349 20.8887 24.4624 20.8761 24.574 20.8541V20.9217C24.4605 20.9446 24.3452 20.9578 24.2295 20.9612" fill="#898B8F"/>
<path d="M24.8259 20.9438V20.3002H24.8879L24.8944 20.3377C25.0334 20.3032 25.0984 20.2817 25.2205 20.2817H25.2297V20.3531H25.2113C25.1088 20.3531 25.0464 20.367 24.9025 20.4039V20.943L24.8259 20.9438Z" fill="#898B8F"/>
<path d="M25.6745 20.3498C25.4643 20.3498 25.3928 20.4419 25.3798 20.5753H25.9692C25.9627 20.4287 25.8862 20.3498 25.6745 20.3498ZM25.6718 20.9619C25.5459 20.9619 25.4643 20.9439 25.3993 20.8905C25.3227 20.8255 25.2967 20.7312 25.2967 20.623C25.2967 20.5148 25.3319 20.4099 25.4188 20.3476C25.4952 20.3005 25.5845 20.2778 25.6745 20.2826C25.7663 20.2771 25.8576 20.2988 25.9367 20.3449C26.0316 20.4073 26.0515 20.517 26.0515 20.6418H25.3771C25.3798 20.7744 25.4238 20.8916 25.6783 20.8916C25.7923 20.8887 25.9057 20.8761 26.0175 20.8541V20.9217C25.904 20.9446 25.7887 20.9578 25.673 20.9612" fill="#898B8F"/>
<path d="M26.8892 20.3944C26.804 20.3652 26.7144 20.3506 26.6243 20.3512C26.3969 20.3512 26.2893 20.4263 26.2893 20.6229C26.2893 20.8088 26.3778 20.8904 26.5489 20.8904C26.6637 20.8852 26.7778 20.8684 26.8892 20.8404V20.3944ZM26.9037 20.9437L26.8968 20.9062C26.7809 20.9367 26.6622 20.9556 26.5424 20.9625C26.4593 20.9687 26.3767 20.945 26.31 20.896C26.2335 20.8336 26.2074 20.7329 26.2074 20.6236C26.2074 20.5086 26.2457 20.4004 26.3529 20.3418C26.4348 20.3008 26.5259 20.2807 26.6178 20.2832C26.7097 20.2844 26.801 20.2981 26.8892 20.3238V20.0288H26.9657V20.9437H26.9037Z" fill="#898B8F"/>
<path d="M28.0892 20.3538C27.9743 20.3588 27.8602 20.3758 27.7489 20.4046V20.8483C27.8339 20.8784 27.9235 20.8936 28.0138 20.893C28.2412 20.893 28.3488 20.8179 28.3488 20.6214C28.3488 20.4365 28.2607 20.3538 28.0892 20.3538ZM28.2852 20.9043C28.2036 20.9443 28.1131 20.9641 28.0219 20.9618C27.922 20.9612 27.8229 20.9448 27.7283 20.9133L27.7245 20.9437H27.6724V20.0288H27.7489V20.3358C27.8626 20.3073 27.9787 20.2894 28.0957 20.2824C28.1787 20.2767 28.2611 20.3002 28.3281 20.3486C28.4046 20.4109 28.4307 20.5116 28.4307 20.6214C28.4307 20.7311 28.3924 20.8445 28.2852 20.9043Z" fill="#898B8F"/>
<path d="M28.5324 21.1901V21.1202C28.5706 21.124 28.6051 21.1266 28.6296 21.1266C28.7245 21.1266 28.7827 21.0995 28.8348 20.9939L28.8596 20.9428L28.5151 20.2992H28.6039L28.8975 20.8549H28.9025L29.1816 20.2992H29.2688L28.8998 21.0221C28.8325 21.1533 28.7597 21.1965 28.6258 21.1965C28.5941 21.1963 28.5626 21.1942 28.5312 21.1901" fill="#898B8F"/>
<path d="M30.3264 20.5768H30.0722V20.8022H30.3264C30.5017 20.8022 30.5679 20.7831 30.5679 20.6895C30.5679 20.5888 30.4768 20.5768 30.3249 20.5768H30.3264ZM30.2789 20.2131H30.0715V20.4423H30.2805C30.4531 20.4423 30.522 20.422 30.522 20.3265C30.522 20.2243 30.4347 20.2138 30.2789 20.2138V20.2131ZM30.674 20.8857C30.5802 20.9443 30.4673 20.9465 30.261 20.9465H29.8724V20.071H30.2518C30.4298 20.071 30.5389 20.0733 30.6296 20.127C30.6597 20.1447 30.6842 20.1702 30.7003 20.2009C30.7164 20.2315 30.7235 20.2659 30.7207 20.3002C30.7207 20.3919 30.6824 20.4532 30.5802 20.4941V20.499C30.695 20.5246 30.7685 20.5821 30.7685 20.7057C30.7714 20.741 30.764 20.7764 30.7473 20.8077C30.7306 20.8391 30.7052 20.8652 30.674 20.883" fill="#898B8F"/>
<path d="M31.5451 20.6737C31.4686 20.6673 31.392 20.6636 31.309 20.6636C31.1754 20.6636 31.1283 20.6903 31.1283 20.7504C31.1283 20.8105 31.1666 20.8368 31.2699 20.8368C31.3627 20.8338 31.455 20.8212 31.5451 20.7992V20.6737ZM31.5834 20.9439L31.5784 20.9063C31.4624 20.9384 31.3429 20.9573 31.2225 20.9627C31.1529 20.9673 31.0835 20.9507 31.0238 20.9153C30.9981 20.8942 30.9782 20.8671 30.9658 20.8366C30.9534 20.806 30.9489 20.773 30.9527 20.7403C30.9565 20.7076 30.9685 20.6764 30.9875 20.6493C31.0066 20.6223 31.0322 20.6004 31.0621 20.5854C31.131 20.5535 31.2232 20.5509 31.3078 20.5509C31.3763 20.5509 31.4686 20.5546 31.5451 20.5599V20.5482C31.5451 20.4475 31.4778 20.4145 31.2933 20.4145C31.2221 20.4145 31.1348 20.4182 31.0517 20.4257V20.2957C31.144 20.2882 31.2481 20.2833 31.3338 20.2833C31.4487 20.2833 31.5662 20.292 31.6401 20.3431C31.7139 20.3942 31.7296 20.4682 31.7296 20.5636V20.9446L31.5834 20.9439Z" fill="#898B8F"/>
<path d="M32.585 20.9438V20.5887C32.585 20.4715 32.5241 20.4294 32.415 20.4294C32.3245 20.4334 32.2347 20.447 32.1471 20.47V20.9442H31.9641V20.3002H32.1134L32.1199 20.3411C32.2341 20.3081 32.3517 20.2885 32.4706 20.2825C32.5512 20.2762 32.6314 20.2998 32.6952 20.3486C32.7469 20.3945 32.7664 20.4584 32.7664 20.55V20.9438H32.585Z" fill="#898B8F"/>
<path d="M33.2838 20.9618C33.1992 20.9618 33.107 20.9502 33.0396 20.8942C32.9592 20.8303 32.9359 20.73 32.9359 20.6214C32.9359 20.5196 32.9695 20.4083 33.0694 20.346C33.1514 20.2937 33.2524 20.2825 33.3577 20.2825C33.4342 20.2825 33.507 20.2874 33.5873 20.2949V20.4328C33.5211 20.4264 33.4419 20.4215 33.3783 20.4215C33.2042 20.4215 33.1223 20.4749 33.1223 20.6229C33.1223 20.7615 33.1835 20.8217 33.3263 20.8217C33.4188 20.8187 33.511 20.8076 33.6015 20.7886V20.9209C33.4967 20.9448 33.3898 20.9585 33.2823 20.9618" fill="#898B8F"/>
<path d="M34.144 20.4174C33.9698 20.4174 33.8933 20.4711 33.8933 20.6176C33.8933 20.7642 33.9698 20.8265 34.144 20.8265C34.3182 20.8265 34.392 20.7743 34.392 20.6278C34.392 20.4812 34.3182 20.4174 34.144 20.4174ZM34.4583 20.8942C34.3779 20.9475 34.2726 20.9618 34.144 20.9618C34.0154 20.9618 33.9078 20.9464 33.8286 20.8942C33.7375 20.8356 33.705 20.7386 33.705 20.6229C33.705 20.5072 33.7375 20.4083 33.8286 20.3497C33.9078 20.2975 34.0127 20.2825 34.144 20.2825C34.2753 20.2825 34.3779 20.2975 34.4583 20.3497C34.549 20.4083 34.5804 20.5068 34.5804 20.6214C34.5804 20.736 34.5478 20.8356 34.4583 20.8942Z" fill="#898B8F"/>
<path d="M35.6371 20.9618C35.5269 20.9618 35.4075 20.9437 35.3179 20.8712C35.2115 20.7844 35.179 20.6507 35.179 20.5068C35.179 20.3779 35.2207 20.2249 35.3592 20.1359C35.4672 20.0671 35.6008 20.0529 35.7359 20.0529C35.8347 20.0529 35.9361 20.0592 36.0463 20.0683V20.2249C35.9518 20.2174 35.8347 20.211 35.7439 20.211C35.4905 20.211 35.383 20.3054 35.383 20.5068C35.383 20.7082 35.4829 20.8036 35.6697 20.8036C35.8032 20.7991 35.9359 20.7816 36.0659 20.7514V20.9069C35.9251 20.9389 35.7815 20.9572 35.6371 20.9618Z" fill="#898B8F"/>
<path d="M36.604 20.3969C36.4509 20.3969 36.3935 20.4506 36.3816 20.5472H36.8233C36.818 20.4427 36.7556 20.3969 36.604 20.3969ZM36.5765 20.9605C36.4689 20.9605 36.3713 20.9477 36.2986 20.8891C36.2258 20.8305 36.1933 20.7298 36.1933 20.62C36.1933 20.522 36.2258 20.4123 36.3169 20.3484C36.3973 20.2924 36.4999 20.2811 36.604 20.2811C36.6974 20.2811 36.8077 20.2913 36.888 20.3461C36.9933 20.4186 37.0029 20.531 37.0029 20.6633H36.3805C36.3843 20.7617 36.4375 20.8252 36.622 20.8252C36.7392 20.8227 36.856 20.8116 36.9715 20.7921V20.9184C36.8412 20.9427 36.7091 20.9568 36.5765 20.9605Z" fill="#898B8F"/>
<path d="M37.8181 20.9438V20.5887C37.8181 20.4715 37.7572 20.4294 37.6481 20.4294C37.5576 20.4334 37.4678 20.447 37.3802 20.47V20.9442H37.1972V20.3002H37.3465L37.353 20.3411C37.4671 20.3081 37.5848 20.2885 37.7036 20.2825C37.7843 20.2762 37.8645 20.2998 37.9283 20.3486C37.98 20.3945 37.9995 20.4584 37.9995 20.55V20.9438H37.8181Z" fill="#898B8F"/>
<path d="M38.5212 20.9619C38.4328 20.9619 38.3524 20.9375 38.3084 20.8699C38.2723 20.8114 38.2554 20.7434 38.2601 20.6752V20.434H38.1277V20.3002H38.2601L38.2796 20.1052H38.4412V20.3002H38.6996V20.434H38.4412V20.6407C38.4387 20.6823 38.4449 20.7239 38.4592 20.7632C38.4787 20.8064 38.5216 20.8229 38.579 20.8229C38.6229 20.8221 38.6667 20.8178 38.7099 20.8101V20.939C38.6476 20.9522 38.5841 20.9599 38.5204 20.9619" fill="#898B8F"/>
<path d="M38.8791 20.9439V20.3002H39.0284L39.0349 20.3412C39.1396 20.3063 39.2489 20.2865 39.3595 20.2826C39.3672 20.2821 39.375 20.2821 39.3828 20.2826V20.4385C39.3621 20.4385 39.3373 20.4385 39.3193 20.4385C39.2325 20.4388 39.146 20.45 39.0621 20.4716V20.9469L38.8791 20.9439Z" fill="#898B8F"/>
<path d="M40.0491 20.6737C39.9726 20.6673 39.896 20.6636 39.8126 20.6636C39.679 20.6636 39.6323 20.6903 39.6323 20.7504C39.6323 20.8105 39.6706 20.8368 39.7735 20.8368C39.8665 20.8338 39.9589 20.8212 40.0491 20.7992V20.6737ZM40.0874 20.9439L40.082 20.9063C39.966 20.9384 39.8465 20.9573 39.7261 20.9627C39.6565 20.9673 39.5871 20.9507 39.5274 20.9153C39.5033 20.8972 39.484 20.8735 39.4714 20.8464C39.4587 20.8193 39.453 20.7895 39.4547 20.7598C39.4529 20.7231 39.4625 20.6868 39.4823 20.6557C39.5021 20.6245 39.531 20.6 39.5653 20.5854C39.6342 20.5535 39.7261 20.5509 39.8107 20.5509C39.8796 20.5509 39.9718 20.5546 40.0484 20.5599V20.5482C40.0484 20.4475 39.9806 20.4145 39.7965 20.4145C39.7249 20.4145 39.638 20.4182 39.555 20.4257V20.2957C39.6472 20.2882 39.7509 20.2833 39.8367 20.2833C39.9515 20.2833 40.069 20.292 40.1429 20.3431C40.2168 20.3942 40.2325 20.4682 40.2325 20.5636V20.9446L40.0874 20.9439Z" fill="#898B8F"/>
<path d="M40.4669 20.0288H40.6503V20.9437H40.4669V20.0288Z" fill="#898B8F"/>
</svg>
