<svg width="44" height="30" viewBox="0 0 44 30" fill="none" xmlns="http://www.w3.org/2000/svg">
<rect x="0.77272" y="0.5" width="42.6364" height="29" rx="3.5" fill="white" stroke="#F3F3F3"/>
<path d="M8.11289 11.3046C8.55225 11.1581 9.02227 11.0786 9.51132 11.0786C11.6457 11.0786 13.426 12.5909 13.8344 14.6L16.8589 13.9848C16.1649 10.5703 13.1394 8 9.51132 8C8.68068 8 7.88114 8.13498 7.13478 8.38364L8.11289 11.3046Z" fill="#FFF200"/>
<path d="M4.51351 21.1999L6.32444 18.8222C5.51609 17.9907 5.0059 16.7769 5.0059 15.4239C5.0059 14.072 5.51562 12.8581 6.32373 12.0274L4.51185 9.6499C3.1383 11.0625 2.27272 13.1258 2.27272 15.4239C2.27272 17.7233 3.13956 19.7873 4.51351 21.1999Z" fill="#00A4E0"/>
<path d="M13.8353 16.25C13.4255 18.2587 11.6463 19.7692 9.51387 19.7692C9.02461 19.7692 8.55368 19.6894 8.11428 19.5425L7.13478 22.465C7.8823 22.7148 8.68209 22.85 9.51387 22.85C13.1386 22.85 16.1622 20.2815 16.8589 16.8682L13.8353 16.25Z" fill="#EF4123"/>
<path fill-rule="evenodd" clip-rule="evenodd" d="M31.4108 9.6499V18.1L32.902 18.7078L32.1966 20.3744L30.7219 19.7717C30.3903 19.6303 30.1659 19.4148 29.9954 19.1715C29.8317 18.9226 29.7103 18.5824 29.7103 18.1232V9.6499H31.4108ZM20.1009 15.9302C20.1379 13.5138 22.1617 11.5848 24.6174 11.6219C26.7016 11.654 28.4285 13.0895 28.8821 14.9988L20.821 18.3866C20.3527 17.6827 20.0866 16.8359 20.1009 15.9302ZM21.9454 16.269C21.9343 16.1676 21.9265 16.0637 21.9295 15.9588C21.9526 14.5351 23.144 13.399 24.5908 13.4226C25.3783 13.433 26.0776 13.7876 26.5503 14.3364L21.9454 16.269ZM26.3805 17.8378C25.8947 18.3025 25.2359 18.5857 24.5084 18.5755C24.0098 18.5673 23.5478 18.4205 23.155 18.1759L22.1812 19.7017C22.8481 20.1162 23.6345 20.3615 24.4823 20.3744C25.7163 20.3924 26.8411 19.9158 27.6589 19.1287L26.3805 17.8378ZM37.6171 13.4226C37.3266 13.4226 37.0475 13.4688 36.7867 13.5548L36.2064 11.8451C36.6493 11.6997 37.1236 11.6207 37.6171 11.6207C39.7709 11.6207 41.5677 13.1251 41.9797 15.1235L40.1835 15.4836C39.9414 14.3075 38.8844 13.4226 37.6171 13.4226ZM34.668 19.2763L35.8817 17.9267C35.3396 17.4548 34.9983 16.7656 34.9983 15.9974C34.9983 15.23 35.3396 14.5411 35.8811 14.0696L34.6666 12.72C33.7458 13.5219 33.1656 14.6936 33.1656 15.9974C33.1656 17.3029 33.7462 18.4741 34.668 19.2763ZM37.617 18.5731C38.8832 18.5731 39.94 17.689 40.1835 16.5146L41.9792 16.8762C41.5651 18.8725 39.7689 20.3749 37.617 20.3749C37.1231 20.3749 36.6483 20.2956 36.2042 20.1495L36.7858 18.4404C37.0471 18.5262 37.3264 18.5731 37.617 18.5731Z" fill="black"/>
</svg>
