<svg width="44" height="30" viewBox="0 0 44 30" fill="none" xmlns="http://www.w3.org/2000/svg">
<rect x="0.499969" y="0.5" width="42.6364" height="29" rx="3.5" fill="white" stroke="#F0F0F0"/>
<path d="M26.1187 22.83H17.5522V7.13538H26.1187V22.83Z" fill="#FF5F00"/>
<path d="M18.1011 14.9815C18.1011 11.7977 19.5634 8.96175 21.8404 7.13413C20.1753 5.79769 18.0738 5.00002 15.7898 5.00002C10.3829 5.00002 5.99997 9.46879 5.99997 14.9815C5.99997 20.4941 10.3829 24.9629 15.7898 24.9629C18.0738 24.9629 20.1753 24.1652 21.8404 22.8288C19.5634 21.0012 18.1011 18.1652 18.1011 14.9815Z" fill="#EB001B"/>
<path d="M37.6721 14.9815C37.6721 20.4941 33.2892 24.9629 27.8822 24.9629C25.5983 24.9629 23.4968 24.1652 21.831 22.8288C24.1087 21.0012 25.5709 18.1652 25.5709 14.9815C25.5709 11.7977 24.1087 8.96175 21.831 7.13413C23.4968 5.79769 25.5983 5.00002 27.8822 5.00002C33.2892 5.00002 37.6721 9.46879 37.6721 14.9815Z" fill="#F79E1B"/>
</svg>
