<svg width="45" height="30" viewBox="0 0 45 30" fill="none" xmlns="http://www.w3.org/2000/svg">
<rect x="1.13634" y="0.5" width="42.6364" height="29" rx="3.5" fill="white" stroke="#F3F3F3"/>
<path d="M20.3751 20.7601H17.246L19.2032 9.20947H22.3321L20.3751 20.7601Z" fill="#15195A"/>
<path d="M31.7184 9.49175C31.1012 9.25804 30.1223 9 28.9119 9C25.8217 9 23.6457 10.5728 23.6324 12.8213C23.6067 14.4803 25.1903 15.4018 26.3748 15.9549C27.5854 16.5202 27.9969 16.8891 27.9969 17.393C27.9846 18.1668 27.0187 18.5235 26.1178 18.5235C24.8685 18.5235 24.1991 18.3396 23.1818 17.9091L22.7698 17.7245L22.3319 20.3174C23.0658 20.6365 24.4179 20.9197 25.8217 20.9321C29.105 20.9321 31.2426 19.3837 31.2679 16.9875C31.2804 15.6726 30.4442 14.6651 28.6413 13.8418C27.5469 13.3133 26.8766 12.9569 26.8766 12.4161C26.8895 11.9246 27.4435 11.421 28.679 11.421C29.6962 11.3964 30.4437 11.6298 31.0099 11.8633L31.2929 11.986L31.7184 9.49175Z" fill="#15195A"/>
<path fill-rule="evenodd" clip-rule="evenodd" d="M37.3194 9.20947H39.7398L42.2642 20.7599H39.367C39.367 20.7599 39.0834 19.4328 38.9936 19.0272H34.976C34.8599 19.3343 34.3193 20.7599 34.3193 20.7599H31.036L35.6839 10.1678C36.006 9.41819 36.573 9.20947 37.3194 9.20947ZM37.1266 13.4363C37.1266 13.4363 36.135 16.0045 35.8773 16.6681H38.4782C38.3495 16.0906 37.757 13.3258 37.757 13.3258L37.5383 12.3305C37.4462 12.5868 37.313 12.9392 37.2232 13.1768C37.1623 13.3379 37.1213 13.4463 37.1266 13.4363Z" fill="#15195A"/>
<path fill-rule="evenodd" clip-rule="evenodd" d="M3.68785 9.20947H8.72232C9.40472 9.23381 9.95844 9.44269 10.1386 10.1804L11.2327 15.4873C11.2328 15.4877 11.233 15.4881 11.2331 15.4884L11.5679 17.0859L14.6324 9.20947H17.9412L13.0227 20.7478H9.71376L6.92476 10.7114C5.96248 10.1744 4.86424 9.74255 3.63634 9.44286L3.68785 9.20947Z" fill="#15195A"/>
</svg>
