<svg width="148" height="20" viewBox="0 0 148 20" fill="none" xmlns="http://www.w3.org/2000/svg">
<path d="M4.18108 13.61C3.67442 13.61 3.20108 13.52 2.76108 13.34C2.32108 13.1533 1.93442 12.8967 1.60108 12.57C1.26775 12.2367 1.00775 11.8533 0.821084 11.42C0.641084 10.98 0.551084 10.5067 0.551084 10C0.551084 9.49333 0.641084 9.02333 0.821084 8.59C1.00775 8.15 1.26775 7.76667 1.60108 7.44C1.93442 7.10667 2.32108 6.85 2.76108 6.67C3.20108 6.48333 3.67442 6.39 4.18108 6.39C4.54775 6.39 4.89775 6.43667 5.23108 6.53C5.57108 6.61667 5.88442 6.74667 6.17108 6.92C6.46442 7.08667 6.72442 7.29333 6.95108 7.54L6.44108 8.08C6.16775 7.76667 5.83108 7.52667 5.43108 7.36C5.03108 7.18667 4.61442 7.1 4.18108 7.1C3.77442 7.1 3.39775 7.17333 3.05108 7.32C2.70442 7.46667 2.40108 7.67333 2.14108 7.94C1.88775 8.2 1.68775 8.50667 1.54108 8.86C1.40108 9.20667 1.33108 9.58667 1.33108 10C1.33108 10.4067 1.40108 10.7867 1.54108 11.14C1.68775 11.4933 1.89108 11.8033 2.15108 12.07C2.41108 12.33 2.71442 12.5333 3.06108 12.68C3.41442 12.8267 3.79442 12.9 4.20108 12.9C4.63442 12.9 5.04775 12.8167 5.44108 12.65C5.83442 12.4767 6.16442 12.24 6.43108 11.94L6.93108 12.46C6.69775 12.7 6.43442 12.9067 6.14108 13.08C5.85442 13.2533 5.54442 13.3867 5.21108 13.48C4.87775 13.5667 4.53442 13.61 4.18108 13.61ZM7.95788 13.5V8.49H8.69788V9.2C8.85121 8.94 9.04455 8.74 9.27788 8.6C9.51788 8.45333 9.79121 8.38 10.0979 8.38C10.2712 8.38 10.4279 8.40333 10.5679 8.45V9.13C10.4812 9.09667 10.3945 9.07333 10.3079 9.06C10.2212 9.04667 10.1345 9.04 10.0479 9.04C9.74121 9.04 9.47121 9.13 9.23788 9.31C9.01121 9.48333 8.83121 9.73667 8.69788 10.07V13.5H7.95788ZM13.4133 13.59C12.9333 13.59 12.4967 13.4767 12.1033 13.25C11.7167 13.0167 11.4067 12.7033 11.1733 12.31C10.9467 11.9167 10.8333 11.4767 10.8333 10.99C10.8333 10.51 10.9433 10.0767 11.1633 9.69C11.3833 9.29667 11.68 8.98667 12.0533 8.76C12.4267 8.52667 12.8433 8.41 13.3033 8.41C13.75 8.41 14.15 8.52667 14.5033 8.76C14.8633 8.98667 15.1467 9.29667 15.3533 9.69C15.5667 10.0767 15.6734 10.51 15.6734 10.99V11.22H11.5633C11.6033 11.5467 11.7067 11.84 11.8733 12.1C12.0467 12.36 12.27 12.5667 12.5433 12.72C12.8167 12.8667 13.1167 12.94 13.4433 12.94C13.7033 12.94 13.9567 12.9 14.2033 12.82C14.45 12.74 14.6567 12.6267 14.8233 12.48L15.2833 12.97C15.0033 13.1767 14.71 13.3333 14.4033 13.44C14.1033 13.54 13.7733 13.59 13.4133 13.59ZM11.5833 10.63H14.9333C14.8933 10.33 14.7933 10.0633 14.6333 9.83C14.48 9.59 14.2867 9.40333 14.0533 9.27C13.82 9.13 13.5633 9.06 13.2833 9.06C12.9967 9.06 12.7333 9.12667 12.4933 9.26C12.2533 9.39333 12.0533 9.58 11.8933 9.82C11.7333 10.0533 11.63 10.3233 11.5833 10.63ZM18.1902 13.59C17.8236 13.59 17.5002 13.5267 17.2202 13.4C16.9469 13.2733 16.7302 13.0967 16.5702 12.87C16.4169 12.6433 16.3402 12.38 16.3402 12.08C16.3402 11.6067 16.5202 11.2333 16.8802 10.96C17.2402 10.6867 17.7269 10.55 18.3402 10.55C18.8802 10.55 19.3702 10.6633 19.8102 10.89V10.23C19.8102 9.83 19.6969 9.53 19.4702 9.33C19.2436 9.12333 18.9136 9.02 18.4802 9.02C18.2336 9.02 17.9836 9.05667 17.7302 9.13C17.4836 9.19667 17.2102 9.30667 16.9102 9.46L16.6302 8.89C16.9902 8.71667 17.3236 8.59 17.6302 8.51C17.9369 8.43 18.2436 8.39 18.5502 8.39C19.1836 8.39 19.6702 8.54 20.0102 8.84C20.3569 9.14 20.5302 9.57 20.5302 10.13V13.5H19.8102V13.01C19.5836 13.2033 19.3336 13.35 19.0602 13.45C18.7936 13.5433 18.5036 13.59 18.1902 13.59ZM17.0502 12.06C17.0502 12.34 17.1669 12.57 17.4002 12.75C17.6402 12.9233 17.9469 13.01 18.3202 13.01C18.6202 13.01 18.8936 12.9633 19.1402 12.87C19.3869 12.7767 19.6102 12.63 19.8102 12.43V11.49C19.6036 11.35 19.3836 11.25 19.1502 11.19C18.9169 11.1233 18.6536 11.09 18.3602 11.09C17.9602 11.09 17.6402 11.18 17.4002 11.36C17.1669 11.5333 17.0502 11.7667 17.0502 12.06ZM23.59 13.6C23.1567 13.6 22.8233 13.4967 22.59 13.29C22.3567 13.0833 22.24 12.7833 22.24 12.39V9.12H21.16V8.49H22.24V7.22L22.97 7.03V8.49H24.48V9.12H22.97V12.2C22.97 12.4667 23.03 12.66 23.15 12.78C23.27 12.8933 23.4667 12.95 23.74 12.95C23.88 12.95 24.0033 12.94 24.11 12.92C24.2233 12.9 24.3433 12.8667 24.47 12.82V13.47C24.3433 13.5167 24.2 13.55 24.04 13.57C23.8867 13.59 23.7367 13.6 23.59 13.6ZM27.5247 13.59C27.0447 13.59 26.608 13.4767 26.2147 13.25C25.828 13.0167 25.518 12.7033 25.2847 12.31C25.058 11.9167 24.9447 11.4767 24.9447 10.99C24.9447 10.51 25.0547 10.0767 25.2747 9.69C25.4947 9.29667 25.7913 8.98667 26.1647 8.76C26.538 8.52667 26.9547 8.41 27.4147 8.41C27.8613 8.41 28.2613 8.52667 28.6147 8.76C28.9747 8.98667 29.258 9.29667 29.4647 9.69C29.678 10.0767 29.7847 10.51 29.7847 10.99V11.22H25.6747C25.7147 11.5467 25.818 11.84 25.9847 12.1C26.158 12.36 26.3813 12.5667 26.6547 12.72C26.928 12.8667 27.228 12.94 27.5547 12.94C27.8147 12.94 28.068 12.9 28.3147 12.82C28.5613 12.74 28.768 12.6267 28.9347 12.48L29.3947 12.97C29.1147 13.1767 28.8213 13.3333 28.5147 13.44C28.2147 13.54 27.8847 13.59 27.5247 13.59ZM25.6947 10.63H29.0447C29.0047 10.33 28.9047 10.0633 28.7447 9.83C28.5913 9.59 28.398 9.40333 28.1647 9.27C27.9313 9.13 27.6747 9.06 27.3947 9.06C27.108 9.06 26.8447 9.12667 26.6047 9.26C26.3647 9.39333 26.1647 9.58 26.0047 9.82C25.8447 10.0533 25.7413 10.3233 25.6947 10.63ZM33.1092 13.58C32.6425 13.58 32.2159 13.4667 31.8292 13.24C31.4492 13.0067 31.1459 12.6967 30.9192 12.31C30.6992 11.9167 30.5892 11.4767 30.5892 10.99C30.5892 10.5033 30.6992 10.0667 30.9192 9.68C31.1459 9.29333 31.4492 8.98667 31.8292 8.76C32.2159 8.52667 32.6459 8.41 33.1192 8.41C33.4125 8.41 33.6959 8.46 33.9692 8.56C34.2425 8.65333 34.4925 8.79333 34.7192 8.98V6.5L35.4592 6.33V13.5H34.7292V12.97C34.2892 13.3767 33.7492 13.58 33.1092 13.58ZM33.1792 12.93C33.4925 12.93 33.7825 12.87 34.0492 12.75C34.3225 12.6233 34.5459 12.45 34.7192 12.23V9.75C34.5459 9.53667 34.3225 9.37 34.0492 9.25C33.7825 9.12333 33.4925 9.06 33.1792 9.06C32.8325 9.06 32.5159 9.14333 32.2292 9.31C31.9492 9.47667 31.7259 9.70667 31.5592 10C31.3992 10.2867 31.3192 10.6133 31.3192 10.98C31.3192 11.3467 31.3992 11.6767 31.5592 11.97C31.7259 12.2633 31.9492 12.4967 32.2292 12.67C32.5159 12.8433 32.8325 12.93 33.1792 12.93ZM38.8661 13.5V6.5L39.6061 6.33V9.02C40.0328 8.61333 40.5694 8.41 41.2161 8.41C41.6894 8.41 42.1161 8.52667 42.4961 8.76C42.8761 8.98667 43.1761 9.29333 43.3961 9.68C43.6228 10.0667 43.7361 10.5033 43.7361 10.99C43.7361 11.4767 43.6228 11.9167 43.3961 12.31C43.1761 12.6967 42.8761 13.0067 42.4961 13.24C42.1161 13.4667 41.6861 13.58 41.2061 13.58C40.9128 13.58 40.6261 13.53 40.3461 13.43C40.0728 13.33 39.8228 13.1867 39.5961 13V13.5H38.8661ZM41.1461 12.93C41.4994 12.93 41.8161 12.8467 42.0961 12.68C42.3761 12.5067 42.5961 12.2767 42.7561 11.99C42.9228 11.6967 43.0061 11.3667 43.0061 11C43.0061 10.6333 42.9228 10.3033 42.7561 10.01C42.5961 9.71667 42.3761 9.48667 42.0961 9.32C41.8161 9.14667 41.4994 9.06 41.1461 9.06C40.8328 9.06 40.5394 9.12333 40.2661 9.25C39.9994 9.37 39.7794 9.54 39.6061 9.76V12.24C39.7794 12.4533 40.0028 12.6233 40.2761 12.75C40.5494 12.87 40.8394 12.93 41.1461 12.93ZM44.828 15.64C44.7347 15.64 44.6447 15.6333 44.558 15.62C44.478 15.6133 44.4114 15.6033 44.358 15.59V14.92C44.4714 14.9467 44.6114 14.96 44.778 14.96C45.218 14.96 45.5514 14.7 45.778 14.18L46.078 13.49L44.038 8.49H44.858L46.478 12.6L48.228 8.49H49.028L46.528 14.28C46.388 14.6 46.238 14.86 46.078 15.06C45.918 15.26 45.7347 15.4067 45.528 15.5C45.328 15.5933 45.0947 15.64 44.828 15.64Z" fill="#8F8F9F"/>
<g clip-path="url(#clip0_102_1084)">
<path d="M62.8205 15.3052C62.1252 15.3052 61.497 15.1631 60.9358 14.8788C60.3746 14.5946 59.9305 14.2134 59.6034 13.7352C59.2752 13.257 59.1111 12.72 59.1111 12.1245C59.1111 11.1543 59.492 10.3816 60.2539 9.80661C61.0158 9.23159 62.0115 8.84691 63.2411 8.65256L65.988 8.23489V7.79828C65.988 7.21598 65.8476 6.7654 65.567 6.44654C65.2863 6.12767 64.8051 5.96824 64.1232 5.96824C63.6422 5.96824 63.2512 6.06876 62.9503 6.26979C62.6559 6.46306 62.4224 6.74132 62.2785 7.07036C62.1714 7.2506 62.0176 7.34071 61.8173 7.34071H60.2339C60.0867 7.34071 59.9764 7.29911 59.9032 7.2159C59.83 7.1327 59.7932 7.02178 59.7928 6.88315C59.8061 6.66161 59.8963 6.39126 60.0635 6.0721C60.2307 5.75295 60.4847 5.44456 60.8254 5.14695C61.1665 4.84889 61.611 4.59585 62.1588 4.38783C62.7067 4.17981 63.3684 4.07581 64.1439 4.07581C64.9861 4.07581 65.698 4.18331 66.2794 4.39831C66.8607 4.61331 67.3252 4.90097 67.6728 5.26128C68.0177 5.61774 68.2785 6.05206 68.4348 6.53034C68.5967 7.02557 68.6781 7.54527 68.6755 8.06818V14.5984C68.6757 14.6641 68.6634 14.7291 68.6393 14.7897C68.6152 14.8504 68.5798 14.9055 68.535 14.9519C68.4903 14.9983 68.4371 15.035 68.3786 15.06C68.3201 15.085 68.2574 15.0977 68.1941 15.0975H66.5701C66.423 15.0975 66.306 15.0489 66.2192 14.9519C66.1327 14.8564 66.0858 14.7295 66.0887 14.5984V13.7872C65.915 14.0368 65.6808 14.2794 65.3862 14.5149C65.0917 14.7504 64.7341 14.941 64.3134 15.0868C63.8931 15.2325 63.3954 15.3053 62.8205 15.3052ZM63.5022 13.3296C63.9699 13.3296 64.3944 13.2256 64.7755 13.0176C65.1566 12.8096 65.4574 12.4872 65.6781 12.0505C65.899 11.6141 66.0094 11.0632 66.0094 10.3977V9.96084L64.0044 10.2936C63.2154 10.4184 62.6272 10.6194 62.2398 10.8967C61.8524 11.174 61.6584 11.5136 61.6577 11.9157C61.6577 12.2209 61.7479 12.4809 61.9282 12.6957C62.1086 12.9106 62.3392 13.0701 62.62 13.1743C62.9032 13.2784 63.2017 13.331 63.5022 13.3296Z" fill="#482BE7"/>
<path d="M75.9537 19.6721C74.9776 19.6721 74.1753 19.5403 73.5468 19.2769C72.9183 19.0135 72.424 18.6946 72.064 18.3203C71.703 17.9462 71.4457 17.5753 71.2921 17.2077C71.1385 16.8401 71.0549 16.5525 71.0413 16.3447C71.028 16.2061 71.0714 16.0848 71.1717 15.9808C71.2168 15.9313 71.2712 15.892 71.3315 15.8651C71.3918 15.8383 71.4568 15.8246 71.5224 15.8248H73.267C73.4005 15.8248 73.5077 15.856 73.5879 15.9184C73.668 15.9808 73.7349 16.0951 73.7884 16.2614C73.8807 16.4637 73.9879 16.6584 74.1092 16.8435C74.2428 17.0516 74.4466 17.2284 74.7206 17.374C74.9947 17.5196 75.3724 17.5923 75.8536 17.5922C76.3615 17.5922 76.7892 17.516 77.1368 17.3635C77.4843 17.2111 77.7484 16.9546 77.9289 16.5941C78.1094 16.2335 78.1996 15.7344 78.1995 15.0969V13.6829C77.8787 14.0852 77.4676 14.411 76.9661 14.6605C76.4647 14.9099 75.8465 15.0347 75.1115 15.0347C74.4028 15.0347 73.7845 14.9134 73.2567 14.6707C72.7289 14.4281 72.2912 14.0884 71.9434 13.6517C71.5957 13.2152 71.3317 12.6986 71.1513 12.1021C70.9709 11.5055 70.8674 10.8471 70.8406 10.1267C70.8272 9.75229 70.8272 9.37794 70.8406 9.00365C70.8672 8.31081 70.9708 7.66617 71.1513 7.06976C71.3318 6.47334 71.5959 5.95003 71.9434 5.49982C72.2909 5.04946 72.7286 4.6994 73.2567 4.44963C73.7848 4.19986 74.4031 4.07505 75.1115 4.0752C75.8734 4.0752 76.5151 4.2243 77.0364 4.52251C77.5578 4.82072 77.9855 5.19151 78.3196 5.63488V4.80355C78.3196 4.65111 78.3664 4.52637 78.4599 4.42935C78.5042 4.38219 78.5573 4.34493 78.6159 4.31986C78.6746 4.29479 78.7375 4.28245 78.801 4.28358H80.425C80.4884 4.2825 80.5513 4.29487 80.6099 4.31994C80.6685 4.34501 80.7216 4.38224 80.7658 4.42935C80.8592 4.52652 80.906 4.65126 80.9062 4.80355L80.9264 14.8267C80.9264 15.8249 80.7458 16.6845 80.3848 17.4054C80.0238 18.1263 79.4794 18.6843 78.7515 19.0794C78.0217 19.4744 77.0891 19.6719 75.9537 19.6721ZM75.8534 12.8298C76.4014 12.8298 76.8425 12.705 77.1767 12.4556C77.5084 12.2093 77.7657 11.8702 77.9186 11.478C78.0762 11.0881 78.171 10.674 78.1992 10.2522C78.2126 10.0723 78.2193 9.84352 78.2195 9.56597C78.2196 9.28841 78.2129 9.06665 78.1992 8.90068C78.1734 8.47479 78.0785 8.05647 77.9186 7.66328C77.7619 7.27346 77.5054 6.93555 77.1767 6.68619C76.8424 6.42988 76.4012 6.30165 75.8534 6.3015C75.3055 6.30135 74.8644 6.42958 74.53 6.68619C74.1986 6.93868 73.9501 7.29077 73.8182 7.6947C73.678 8.11074 73.5944 8.56823 73.5675 9.06717C73.5406 9.40626 73.5406 9.74707 73.5675 10.0862C73.5902 10.55 73.6746 11.0083 73.8182 11.4482C73.9585 11.8712 74.1958 12.2074 74.53 12.4569C74.8642 12.7064 75.3054 12.8309 75.8534 12.8304V12.8298Z" fill="#482BE7"/>
<path d="M88.0847 15.3052C86.6008 15.3052 85.4244 14.8616 84.5555 13.9744C83.6866 13.0872 83.2187 11.8256 83.152 10.1895C83.1384 10.0512 83.1317 9.87444 83.132 9.65929C83.13 9.48921 83.1367 9.31914 83.152 9.1498C83.2053 8.09648 83.4359 7.19191 83.8438 6.43606C84.2516 5.68021 84.8164 5.09799 85.5381 4.68938C86.2598 4.28063 87.1087 4.0761 88.0847 4.07581C89.1673 4.07581 90.0763 4.30804 90.8116 4.77252C91.5468 5.23699 92.1016 5.88162 92.4758 6.70641C92.85 7.53149 93.0371 8.48459 93.0371 9.56568V10.0025C93.0382 10.0683 93.0264 10.1335 93.0022 10.1943C92.9781 10.2551 92.9422 10.3101 92.8968 10.356C92.8031 10.4532 92.6828 10.5017 92.536 10.5015H85.8789V10.668C85.8921 11.1534 85.9823 11.6005 86.1497 12.0091C86.317 12.4177 86.5643 12.7469 86.8915 12.9969C87.2189 13.2465 87.6099 13.3713 88.0645 13.3713C88.4387 13.3713 88.7529 13.3124 89.007 13.1945C89.2612 13.0767 89.4684 12.9415 89.6285 12.7889C89.7888 12.6368 89.9025 12.512 89.9694 12.4147C90.0897 12.2481 90.1866 12.1476 90.2601 12.1132C90.3336 12.0787 90.4439 12.0614 90.5909 12.0612H92.3155C92.449 12.0612 92.5592 12.1028 92.6462 12.186C92.6881 12.2245 92.7201 12.2732 92.7393 12.3276C92.7585 12.3821 92.7644 12.4406 92.7564 12.4981C92.7431 12.72 92.6329 12.9904 92.4257 13.3091C92.2185 13.6278 91.9211 13.9398 91.5334 14.2452C91.1456 14.5504 90.661 14.803 90.0796 15.003C89.4982 15.203 88.8332 15.3037 88.0847 15.3052ZM85.8789 8.75486H90.3102V8.69223C90.3102 8.15154 90.2233 7.67666 90.0495 7.26761C89.8757 6.85856 89.6218 6.5397 89.2877 6.31103C88.9533 6.08236 88.5521 5.96802 88.0842 5.96802C87.6163 5.96802 87.2152 6.08236 86.8808 6.31103C86.5465 6.53985 86.2958 6.85871 86.1286 7.26761C85.9614 7.67651 85.8782 8.15139 85.8789 8.69223V8.75486Z" fill="#482BE7"/>
<path d="M95.6447 15.0972C95.5814 15.0976 95.5187 15.0849 95.4601 15.06C95.4016 15.0351 95.3484 14.9983 95.3036 14.952C95.2588 14.9056 95.2233 14.8505 95.1991 14.7898C95.175 14.7291 95.1627 14.6641 95.1629 14.5984V4.78299C95.1627 4.71732 95.1749 4.65224 95.1991 4.59152C95.2232 4.5308 95.2587 4.47564 95.3035 4.42922C95.3483 4.3828 95.4015 4.34605 95.4601 4.32108C95.5186 4.29611 95.5814 4.28342 95.6447 4.28375H97.2889C97.3522 4.28351 97.4149 4.29627 97.4734 4.32128C97.5319 4.34628 97.585 4.38305 97.6298 4.42946C97.6745 4.47587 97.7099 4.531 97.734 4.59168C97.7581 4.65235 97.7704 4.71737 97.7701 4.78299V5.63549C98.1177 5.19197 98.5622 4.82118 99.1036 4.52312C99.645 4.22506 100.317 4.07595 101.119 4.07581C101.934 4.07581 102.642 4.26644 103.244 4.6477C103.846 5.02897 104.311 5.56617 104.638 6.25932C104.965 6.95276 105.129 7.78482 105.129 8.75552V14.5984C105.129 14.664 105.117 14.7291 105.093 14.7898C105.069 14.8504 105.033 14.9056 104.989 14.952C104.944 14.9983 104.891 15.0351 104.832 15.0601C104.774 15.085 104.711 15.0977 104.648 15.0974H102.883C102.82 15.0978 102.757 15.0851 102.699 15.0602C102.64 15.0352 102.587 14.9985 102.542 14.9521C102.497 14.9057 102.462 14.8506 102.438 14.7899C102.413 14.7291 102.401 14.6641 102.401 14.5984V8.87944C102.401 8.07575 102.211 7.44501 101.83 6.98723C101.449 6.52944 100.897 6.3007 100.175 6.30099C99.4799 6.30099 98.9252 6.52974 98.5109 6.98723C98.0965 7.44472 97.8893 8.07545 97.8892 8.87944V14.5984C97.8894 14.664 97.8771 14.729 97.8531 14.7897C97.829 14.8504 97.7935 14.9055 97.7488 14.9519C97.7041 14.9983 97.6509 15.035 97.5924 15.06C97.5339 15.085 97.4713 15.0977 97.408 15.0974L95.6447 15.0972Z" fill="#482BE7"/>
<path d="M112.186 15.3052C111.224 15.3052 110.378 15.118 109.65 14.7438C108.922 14.3695 108.354 13.8254 107.946 13.1114C107.538 12.3982 107.314 11.5352 107.274 10.5223C107.261 10.3142 107.254 10.0405 107.254 9.70097C107.254 9.36145 107.261 9.0807 107.274 8.85872C107.314 7.84686 107.538 6.98389 107.946 6.26979C108.354 5.5557 108.922 5.01159 109.65 4.63745C110.379 4.26302 111.224 4.07581 112.186 4.07581C113.041 4.07581 113.77 4.19712 114.372 4.43976C114.973 4.6824 115.468 4.99443 115.855 5.37584C116.242 5.75725 116.533 6.15234 116.727 6.56109C116.921 6.96985 117.024 7.34071 117.038 7.67369C117.051 7.82628 117.007 7.9476 116.907 8.03765C116.811 8.12637 116.685 8.17453 116.556 8.17271H114.792C114.659 8.17271 114.555 8.13839 114.482 8.06885C114.408 7.99931 114.338 7.89567 114.271 7.75682C114.071 7.20246 113.807 6.81079 113.479 6.58182C113.152 6.35285 112.734 6.23852 112.226 6.23882C111.557 6.23882 111.026 6.45716 110.632 6.89385C110.238 7.33053 110.027 8.02019 110 8.9628C109.973 9.4476 109.973 9.93361 110 10.4184C110.027 11.375 110.237 12.0681 110.632 12.4978C111.026 12.9275 111.557 13.1425 112.226 13.1426C112.747 13.1426 113.168 13.0282 113.489 12.7994C113.81 12.5706 114.07 12.1789 114.271 11.6244C114.338 11.4861 114.408 11.382 114.482 11.3124C114.555 11.2427 114.659 11.2081 114.792 11.2085H116.557C116.686 11.2069 116.811 11.2551 116.908 11.3438C117.008 11.434 117.052 11.5553 117.038 11.7077C117.025 11.9572 116.961 12.2379 116.848 12.5498C116.734 12.8616 116.554 13.1805 116.307 13.5063C116.059 13.8323 115.748 14.1304 115.374 14.4005C115 14.6707 114.549 14.889 114.02 15.0556C113.492 15.2221 112.881 15.3053 112.186 15.3052Z" fill="#482BE7"/>
<path d="M119.525 2.49616C119.461 2.49642 119.399 2.4837 119.34 2.45872C119.282 2.43374 119.228 2.39699 119.184 2.3506C119.139 2.30422 119.103 2.2491 119.079 2.18844C119.055 2.12777 119.043 2.06276 119.043 1.99714V0.49897C119.042 0.433219 119.054 0.367933 119.078 0.307138C119.102 0.246344 119.138 0.19133 119.184 0.145489C119.228 0.09839 119.281 0.0611795 119.34 0.0361497C119.398 0.01112 119.461 -0.00119893 119.525 -4.82909e-05H121.349C121.496 -4.82909e-05 121.616 0.0487615 121.71 0.145489C121.755 0.191404 121.791 0.246437 121.815 0.307218C121.84 0.367999 121.851 0.433248 121.85 0.49897V1.99625C121.851 2.06198 121.84 2.12725 121.815 2.18805C121.791 2.24884 121.755 2.30386 121.71 2.34973C121.616 2.4469 121.496 2.49542 121.349 2.49527L119.525 2.49616ZM119.605 15.098C119.541 15.0983 119.479 15.0855 119.42 15.0605C119.362 15.0355 119.308 14.9987 119.264 14.9522C119.219 14.9057 119.184 14.8505 119.159 14.7898C119.135 14.729 119.123 14.664 119.124 14.5983V4.78286C119.123 4.71725 119.136 4.65223 119.16 4.59155C119.184 4.53087 119.219 4.47574 119.264 4.42933C119.309 4.38292 119.362 4.34616 119.42 4.32115C119.479 4.29614 119.541 4.28339 119.605 4.28362H121.269C121.416 4.28362 121.533 4.33221 121.62 4.42938C121.706 4.52505 121.753 4.65192 121.75 4.78286V14.5983C121.753 14.7293 121.706 14.8562 121.62 14.9518C121.533 15.049 121.416 15.0975 121.269 15.0973L119.605 15.098Z" fill="#482BE7"/>
<path d="M127.444 15.3052C126.749 15.3052 126.121 15.1631 125.559 14.8788C124.998 14.5946 124.554 14.2134 124.226 13.7352C123.899 13.257 123.735 12.7197 123.735 12.1236C123.735 11.1534 124.116 10.3807 124.878 9.80572C125.64 9.2307 126.636 8.84602 127.865 8.65167L130.612 8.23578V7.79828C130.612 7.21598 130.472 6.7654 130.191 6.44654C129.91 6.12767 129.429 5.96824 128.747 5.96824C128.266 5.96824 127.875 6.06876 127.574 6.26979C127.28 6.46306 127.046 6.74132 126.903 7.07036C126.796 7.2506 126.642 7.34071 126.441 7.34071H124.857C124.71 7.34071 124.6 7.29911 124.527 7.2159C124.453 7.1327 124.417 7.02178 124.416 6.88315C124.429 6.66161 124.52 6.39126 124.687 6.0721C124.854 5.75295 125.108 5.44456 125.449 5.14695C125.79 4.84889 126.234 4.59585 126.782 4.38783C127.331 4.17981 127.992 4.07581 128.767 4.07581C129.609 4.07581 130.321 4.18331 130.903 4.39831C131.484 4.61331 131.949 4.90097 132.296 5.26128C132.642 5.61762 132.902 6.05198 133.059 6.53034C133.221 7.02554 133.302 7.54526 133.299 8.06818V14.5984C133.3 14.664 133.287 14.7291 133.263 14.7897C133.239 14.8504 133.204 14.9055 133.159 14.9519C133.114 14.9983 133.061 15.035 133.003 15.06C132.944 15.085 132.881 15.0977 132.818 15.0975H131.194C131.047 15.0975 130.93 15.0489 130.843 14.9519C130.757 14.8564 130.71 14.7294 130.713 14.5984V13.7872C130.539 14.0368 130.305 14.2794 130.011 14.5149C129.717 14.7504 129.359 14.941 128.938 15.0868C128.517 15.2325 128.019 15.3053 127.444 15.3052ZM128.126 13.3296C128.594 13.3296 129.018 13.2256 129.399 13.0176C129.781 12.8096 130.081 12.4872 130.302 12.0505C130.523 11.6138 130.633 11.0628 130.633 10.3975V9.96062L128.628 10.2934C127.84 10.4182 127.252 10.6192 126.863 10.8965C126.475 11.1737 126.281 11.5134 126.282 11.9155C126.282 12.2207 126.372 12.4807 126.553 12.6955C126.733 12.9104 126.964 13.0699 127.244 13.174C127.527 13.2783 127.826 13.3309 128.126 13.3296Z" fill="#482BE7"/>
<path d="M142.848 0.0133059H141.407C141.345 0.0132767 141.284 0.0258859 141.226 0.0504132C141.169 0.0749405 141.117 0.110905 141.074 0.156253C141.03 0.201601 140.995 0.255443 140.972 0.314703C140.948 0.373964 140.936 0.437481 140.936 0.501627V5.67034L137.464 0.231947C137.421 0.164646 137.363 0.109451 137.294 0.0712973C137.225 0.0331436 137.149 0.0132194 137.071 0.0133059H135.631C135.569 0.0132767 135.508 0.0258859 135.451 0.0504132C135.394 0.0749405 135.342 0.110905 135.298 0.156253C135.254 0.201601 135.22 0.255443 135.196 0.314703C135.172 0.373964 135.16 0.437481 135.16 0.501627V9.62595C135.16 9.69009 135.172 9.75361 135.196 9.81287C135.22 9.87213 135.254 9.92597 135.298 9.97132C135.342 10.0167 135.394 10.0526 135.451 10.0772C135.508 10.1017 135.569 10.1143 135.631 10.1143H137.071C137.133 10.1143 137.194 10.1016 137.251 10.0771C137.308 10.0526 137.36 10.0166 137.404 9.97124C137.448 9.92589 137.482 9.87206 137.506 9.81282C137.53 9.75357 137.542 9.69007 137.542 9.62595V4.44675L141.014 9.89562C141.057 9.963 141.115 10.0183 141.184 10.0565C141.252 10.0948 141.329 10.1148 141.407 10.1147H142.848C142.973 10.1147 143.092 10.0633 143.181 9.97169C143.269 9.88011 143.319 9.7559 143.319 9.62639V0.501627C143.319 0.372116 143.269 0.24791 143.181 0.156332C143.092 0.0647539 142.973 0.0133059 142.848 0.0133059Z" fill="#E93A7D"/>
<path d="M147.529 0.00402852H144.9C144.775 0.00402852 144.656 0.0554765 144.567 0.147054C144.479 0.238632 144.429 0.362839 144.429 0.492349V1.8559C144.429 1.92003 144.442 1.98353 144.465 2.04278C144.489 2.10202 144.524 2.15585 144.567 2.2012C144.656 2.29278 144.775 2.34422 144.9 2.34422H145.605V9.62602C145.605 9.69015 145.617 9.75365 145.641 9.81289C145.664 9.87214 145.699 9.92597 145.743 9.97131C145.787 10.0167 145.838 10.0526 145.896 10.0772C145.953 10.1017 146.014 10.1143 146.076 10.1143H147.529C147.591 10.1144 147.652 10.1018 147.71 10.0772C147.767 10.0527 147.819 10.0167 147.862 9.97139C147.906 9.92605 147.941 9.8722 147.965 9.81294C147.988 9.75368 148 9.69017 148 9.62602V0.492349C148 0.428185 147.988 0.364649 147.965 0.305374C147.941 0.246099 147.906 0.192247 147.862 0.146897C147.819 0.101546 147.767 0.0655859 147.709 0.0410717C147.652 0.0165575 147.591 0.00396995 147.529 0.00402852Z" fill="#E93A7D"/>
<path d="M84.9892 3.10783C84.7886 3.10783 84.6883 3.01771 84.6883 2.83748C84.6883 2.72678 84.7551 2.60896 84.8888 2.484L86.8337 0.404565C86.9672 0.252118 87.0842 0.15851 87.1846 0.123741C87.2915 0.0881945 87.4031 0.0706615 87.5153 0.0718109H88.5982C88.714 0.0690705 88.8294 0.0866274 88.9395 0.123741C89.0328 0.15851 89.1464 0.252118 89.2803 0.404565L91.2454 2.484C91.3656 2.60881 91.4257 2.72663 91.4257 2.83748C91.4257 3.01771 91.3254 3.10783 91.1248 3.10783H90.383C90.2753 3.10785 90.1679 3.09741 90.0621 3.07662C89.9563 3.05642 89.8546 3.01776 89.7613 2.96229L88.0569 1.86017L86.3527 2.96229C86.2644 3.02064 86.1654 3.05928 86.0619 3.07573C85.9527 3.0962 85.842 3.10664 85.731 3.10694L84.9892 3.10783Z" fill="#E93A7D"/>
</g>
<defs>
<clipPath id="clip0_102_1084">
<rect width="88.8889" height="19.6721" fill="white" transform="translate(59.1111)"/>
</clipPath>
</defs>
</svg>
