<svg width="109" height="14" viewBox="0 0 109 14" fill="none" xmlns="http://www.w3.org/2000/svg">
<path d="M0.77 10.5V3.5H3.81C4.27 3.5 4.66667 3.58333 5 3.75C5.34 3.91667 5.60333 4.15333 5.79 4.46C5.97667 4.76 6.07 5.11333 6.07 5.52C6.07 5.92667 5.97667 6.28333 5.79 6.59C5.60333 6.89 5.34 7.12667 5 7.3C4.66 7.46667 4.26333 7.55 3.81 7.55H1.54V10.5H0.77ZM1.54 6.88H3.75C4.22333 6.88 4.6 6.76 4.88 6.52C5.16 6.27333 5.3 5.94333 5.3 5.53C5.3 5.11667 5.16 4.79 4.88 4.55C4.6 4.31 4.22333 4.19 3.75 4.19H1.54V6.88ZM8.83891 10.6C8.36557 10.6 7.93224 10.4867 7.53891 10.26C7.15224 10.0267 6.84557 9.71333 6.61891 9.32C6.39224 8.92667 6.27891 8.48667 6.27891 8C6.27891 7.51333 6.39224 7.07333 6.61891 6.68C6.84557 6.28667 7.15224 5.97667 7.53891 5.75C7.93224 5.51667 8.36557 5.4 8.83891 5.4C9.31891 5.4 9.75224 5.51667 10.1389 5.75C10.5256 5.97667 10.8322 6.28667 11.0589 6.68C11.2856 7.07333 11.3989 7.51333 11.3989 8C11.3989 8.48667 11.2856 8.92667 11.0589 9.32C10.8322 9.71333 10.5256 10.0267 10.1389 10.26C9.75224 10.4867 9.31891 10.6 8.83891 10.6ZM8.83891 9.94C9.17891 9.94 9.48557 9.85333 9.75891 9.68C10.0389 9.50667 10.2589 9.27333 10.4189 8.98C10.5856 8.68667 10.6689 8.36 10.6689 8C10.6689 7.63333 10.5856 7.30667 10.4189 7.02C10.2589 6.72667 10.0389 6.49333 9.75891 6.32C9.48557 6.14667 9.17891 6.06 8.83891 6.06C8.49891 6.06 8.18891 6.14667 7.90891 6.32C7.63557 6.49333 7.41557 6.72667 7.24891 7.02C7.08891 7.30667 7.00891 7.63333 7.00891 8C7.00891 8.36 7.08891 8.68667 7.24891 8.98C7.41557 9.27333 7.63557 9.50667 7.90891 9.68C8.18891 9.85333 8.49891 9.94 8.83891 9.94ZM13.2492 10.5L11.8392 5.49H12.5692L13.6492 9.49L14.8992 5.49H15.5592L16.7992 9.49L17.8892 5.49H18.5892L17.1692 10.5H16.4592L15.2192 6.49L13.9692 10.5H13.2492ZM21.6128 10.59C21.1328 10.59 20.6961 10.4767 20.3028 10.25C19.9161 10.0167 19.6061 9.70333 19.3728 9.31C19.1461 8.91667 19.0328 8.47667 19.0328 7.99C19.0328 7.51 19.1428 7.07667 19.3628 6.69C19.5828 6.29667 19.8795 5.98667 20.2528 5.76C20.6261 5.52667 21.0428 5.41 21.5028 5.41C21.9495 5.41 22.3495 5.52667 22.7028 5.76C23.0628 5.98667 23.3461 6.29667 23.5528 6.69C23.7661 7.07667 23.8728 7.51 23.8728 7.99V8.22H19.7628C19.8028 8.54667 19.9061 8.84 20.0728 9.1C20.2461 9.36 20.4695 9.56667 20.7428 9.72C21.0161 9.86667 21.3161 9.94 21.6428 9.94C21.9028 9.94 22.1561 9.9 22.4028 9.82C22.6495 9.74 22.8561 9.62667 23.0228 9.48L23.4828 9.97C23.2028 10.1767 22.9095 10.3333 22.6028 10.44C22.3028 10.54 21.9728 10.59 21.6128 10.59ZM19.7828 7.63H23.1328C23.0928 7.33 22.9928 7.06333 22.8328 6.83C22.6795 6.59 22.4861 6.40333 22.2528 6.27C22.0195 6.13 21.7628 6.06 21.4828 6.06C21.1961 6.06 20.9328 6.12667 20.6928 6.26C20.4528 6.39333 20.2528 6.58 20.0928 6.82C19.9328 7.05333 19.8295 7.32333 19.7828 7.63ZM24.9073 10.5V5.49H25.6473V6.2C25.8007 5.94 25.994 5.74 26.2273 5.6C26.4673 5.45333 26.7407 5.38 27.0473 5.38C27.2207 5.38 27.3773 5.40333 27.5173 5.45V6.13C27.4307 6.09667 27.344 6.07333 27.2573 6.06C27.1707 6.04667 27.084 6.04 26.9973 6.04C26.6907 6.04 26.4207 6.13 26.1873 6.31C25.9607 6.48333 25.7807 6.73667 25.6473 7.07V10.5H24.9073ZM30.3628 10.59C29.8828 10.59 29.4461 10.4767 29.0528 10.25C28.6661 10.0167 28.3561 9.70333 28.1228 9.31C27.8961 8.91667 27.7828 8.47667 27.7828 7.99C27.7828 7.51 27.8928 7.07667 28.1128 6.69C28.3328 6.29667 28.6295 5.98667 29.0028 5.76C29.3761 5.52667 29.7928 5.41 30.2528 5.41C30.6995 5.41 31.0995 5.52667 31.4528 5.76C31.8128 5.98667 32.0961 6.29667 32.3028 6.69C32.5161 7.07667 32.6228 7.51 32.6228 7.99V8.22H28.5128C28.5528 8.54667 28.6561 8.84 28.8228 9.1C28.9961 9.36 29.2195 9.56667 29.4928 9.72C29.7661 9.86667 30.0661 9.94 30.3928 9.94C30.6528 9.94 30.9061 9.9 31.1528 9.82C31.3995 9.74 31.6061 9.62667 31.7728 9.48L32.2328 9.97C31.9528 10.1767 31.6595 10.3333 31.3528 10.44C31.0528 10.54 30.7228 10.59 30.3628 10.59ZM28.5328 7.63H31.8828C31.8428 7.33 31.7428 7.06333 31.5828 6.83C31.4295 6.59 31.2361 6.40333 31.0028 6.27C30.7695 6.13 30.5128 6.06 30.2328 6.06C29.9461 6.06 29.6828 6.12667 29.4428 6.26C29.2028 6.39333 29.0028 6.58 28.8428 6.82C28.6828 7.05333 28.5795 7.32333 28.5328 7.63ZM35.9473 10.58C35.4807 10.58 35.054 10.4667 34.6673 10.24C34.2873 10.0067 33.984 9.69667 33.7573 9.31C33.5373 8.91667 33.4273 8.47667 33.4273 7.99C33.4273 7.50333 33.5373 7.06667 33.7573 6.68C33.984 6.29333 34.2873 5.98667 34.6673 5.76C35.054 5.52667 35.484 5.41 35.9573 5.41C36.2507 5.41 36.534 5.46 36.8073 5.56C37.0807 5.65333 37.3307 5.79333 37.5573 5.98V3.5L38.2973 3.33V10.5H37.5673V9.97C37.1273 10.3767 36.5873 10.58 35.9473 10.58ZM36.0173 9.93C36.3307 9.93 36.6207 9.87 36.8873 9.75C37.1607 9.62333 37.384 9.45 37.5573 9.23V6.75C37.384 6.53667 37.1607 6.37 36.8873 6.25C36.6207 6.12333 36.3307 6.06 36.0173 6.06C35.6707 6.06 35.354 6.14333 35.0673 6.31C34.7873 6.47667 34.564 6.70667 34.3973 7C34.2373 7.28667 34.1573 7.61333 34.1573 7.98C34.1573 8.34667 34.2373 8.67667 34.3973 8.97C34.564 9.26333 34.7873 9.49667 35.0673 9.67C35.354 9.84333 35.6707 9.93 36.0173 9.93ZM41.7042 10.5V3.5L42.4442 3.33V6.02C42.8709 5.61333 43.4076 5.41 44.0542 5.41C44.5276 5.41 44.9542 5.52667 45.3342 5.76C45.7142 5.98667 46.0142 6.29333 46.2342 6.68C46.4609 7.06667 46.5742 7.50333 46.5742 7.99C46.5742 8.47667 46.4609 8.91667 46.2342 9.31C46.0142 9.69667 45.7142 10.0067 45.3342 10.24C44.9542 10.4667 44.5242 10.58 44.0442 10.58C43.7509 10.58 43.4642 10.53 43.1842 10.43C42.9109 10.33 42.6609 10.1867 42.4342 10V10.5H41.7042ZM43.9842 9.93C44.3376 9.93 44.6542 9.84667 44.9342 9.68C45.2142 9.50667 45.4342 9.27667 45.5942 8.99C45.7609 8.69667 45.8442 8.36667 45.8442 8C45.8442 7.63333 45.7609 7.30333 45.5942 7.01C45.4342 6.71667 45.2142 6.48667 44.9342 6.32C44.6542 6.14667 44.3376 6.06 43.9842 6.06C43.6709 6.06 43.3776 6.12333 43.1042 6.25C42.8376 6.37 42.6176 6.54 42.4442 6.76V9.24C42.6176 9.45333 42.8409 9.62333 43.1142 9.75C43.3876 9.87 43.6776 9.93 43.9842 9.93ZM47.6662 12.64C47.5728 12.64 47.4828 12.6333 47.3962 12.62C47.3162 12.6133 47.2495 12.6033 47.1962 12.59V11.92C47.3095 11.9467 47.4495 11.96 47.6162 11.96C48.0562 11.96 48.3895 11.7 48.6162 11.18L48.9162 10.49L46.8762 5.49H47.6962L49.3162 9.6L51.0662 5.49H51.8662L49.3662 11.28C49.2262 11.6 49.0762 11.86 48.9162 12.06C48.7562 12.26 48.5728 12.4067 48.3662 12.5C48.1662 12.5933 47.9328 12.64 47.6662 12.64Z" fill="#8F8F9F"/>
<g clip-path="url(#clip0_102_1102)">
<path d="M73.9903 0.564297L71.1571 11.9654C70.7267 13.7307 69.3358 13.9964 68.0201 13.9964C66.7043 13.9964 65.3135 13.7265 64.8577 11.9654L62.0245 0.564297C62.0245 0.539754 61.9991 0.515215 61.9991 0.46613C62.0013 0.423822 62.0123 0.382379 62.0315 0.34434C62.0507 0.3063 62.0778 0.272462 62.111 0.244895C62.1442 0.217328 62.1828 0.196614 62.2245 0.184016C62.2662 0.171417 62.3102 0.167201 62.3536 0.171625H64.9843C65.0766 0.171544 65.1659 0.203776 65.2357 0.262392C65.3054 0.321009 65.351 0.402069 65.3641 0.490672L67.7415 11.1072C67.7922 11.3036 67.8428 11.3772 68.0201 11.3772C68.1973 11.3772 68.2479 11.3036 68.2986 11.1072L70.6761 0.490672C70.6867 0.405457 70.7281 0.326656 70.793 0.268248C70.8579 0.209841 70.9421 0.175606 71.0305 0.171625H73.6865C73.8891 0.171625 74.0157 0.269794 74.0157 0.46613C74.0157 0.490672 73.9903 0.515212 73.9903 0.564297Z" fill="#E71C4D"/>
<path d="M84.8168 2.77084H81.7304V13.4831C81.7279 13.5799 81.6871 13.6722 81.6164 13.7407C81.5457 13.8093 81.4505 13.8488 81.3506 13.8512H78.8692C78.7692 13.8488 78.6741 13.8093 78.6033 13.7407C78.5326 13.6722 78.4918 13.5799 78.4894 13.4831V2.77084H75.403C75.3056 2.77404 75.211 2.73965 75.1397 2.67523C75.0685 2.6108 75.0266 2.52162 75.0232 2.42726V0.539205C75.0266 0.444844 75.0685 0.355656 75.1397 0.291233C75.211 0.226809 75.3056 0.192419 75.403 0.195617H84.8133C84.9134 0.19173 85.0112 0.225198 85.0865 0.289121C85.1619 0.353045 85.2091 0.442551 85.2184 0.539205V2.42726C85.2091 2.52331 85.1624 2.61232 85.0878 2.67615C85.0132 2.73999 84.9163 2.77385 84.8168 2.77084Z" fill="#E71C4D"/>
<path d="M94.806 13.7554C93.5845 13.9398 92.3489 14.0219 91.1128 14.0008C88.6594 14.0008 86.5089 13.3881 86.5089 10.0529V3.94784C86.5089 0.588953 88.6847 -5.22288e-05 91.1363 -5.22288e-05C92.3637 -0.0216191 93.5907 0.0604926 94.8034 0.245363C95.0819 0.294447 95.1832 0.368078 95.1832 0.613499V2.32975C95.1807 2.42664 95.14 2.51892 95.0693 2.58745C94.9985 2.65598 94.9034 2.69552 94.8034 2.69788H90.9644C90.079 2.69788 89.7499 2.99239 89.7499 3.94869V5.61585H94.6576C94.7575 5.61821 94.8527 5.65776 94.9235 5.72629C94.9942 5.79483 95.0349 5.8871 95.0374 5.98399V7.72478C95.0349 7.82168 94.9942 7.91395 94.9235 7.98248C94.8527 8.05101 94.7575 8.09055 94.6576 8.09291H89.7499V10.0546C89.7499 11.0109 90.079 11.3054 90.9644 11.3054H94.806C94.906 11.3077 95.0012 11.3473 95.0719 11.4158C95.1426 11.4844 95.1834 11.5766 95.1858 11.6735V13.3898C95.1884 13.6081 95.0871 13.7308 94.806 13.7554Z" fill="#E71C4D"/>
<path d="M108.746 13.829H105.735C105.633 13.8357 105.531 13.8138 105.442 13.7659C105.352 13.718 105.279 13.6463 105.23 13.5591L102.751 9.6848L100.526 13.4854C100.399 13.7063 100.247 13.8536 100.045 13.8536H97.2375C97.202 13.8582 97.1659 13.8552 97.1317 13.8448C97.0974 13.8344 97.066 13.817 97.0394 13.7936C97.0129 13.7702 96.992 13.7415 96.9781 13.7095C96.9642 13.6775 96.9577 13.6429 96.959 13.6082C96.9599 13.5626 96.9779 13.519 97.0097 13.4854L100.981 6.84045L96.9843 0.539057C96.9639 0.501359 96.9551 0.458761 96.959 0.41635C96.965 0.348939 96.997 0.286189 97.0486 0.240679C97.1003 0.195168 97.1678 0.170255 97.2375 0.170928H100.299C100.501 0.170928 100.653 0.367263 100.779 0.514516L103.131 4.23815L105.256 0.514516C105.3 0.422932 105.367 0.34351 105.451 0.283492C105.535 0.223475 105.633 0.184775 105.736 0.170928H108.544C108.579 0.168756 108.614 0.173433 108.648 0.184687C108.681 0.19594 108.711 0.213541 108.737 0.236437C108.763 0.259332 108.784 0.287057 108.799 0.317964C108.813 0.348871 108.822 0.38233 108.823 0.41635C108.823 0.465434 108.797 0.489973 108.797 0.539057L104.876 7.03679L108.949 13.4854C108.99 13.543 109.008 13.6126 109 13.6818C109 13.7554 108.899 13.829 108.746 13.829Z" fill="#E71C4D"/>
</g>
<defs>
<clipPath id="clip0_102_1102">
<rect width="47" height="14" fill="white" transform="translate(62)"/>
</clipPath>
</defs>
</svg>
