<svg width="30" height="30" viewBox="0 0 30 30" fill="none" xmlns="http://www.w3.org/2000/svg">
<rect x="-3.05176e-05" width="30" height="30" rx="15" fill="#8F8F9F"/>
<path d="M18.7493 6.66663H15.9541V18.0193C15.9541 19.372 14.8791 20.4831 13.5413 20.4831C12.2035 20.4831 11.1284 19.372 11.1284 18.0193C11.1284 16.6908 12.1796 15.6038 13.4696 15.5555V12.7053C10.6267 12.7536 8.3333 15.0966 8.3333 18.0193C8.3333 20.9662 10.6745 23.3333 13.5652 23.3333C16.4558 23.3333 18.797 20.942 18.797 18.0193V12.198C19.8482 12.971 21.1382 13.4299 22.5 13.4541V10.6038C20.3977 10.5314 18.7493 8.79223 18.7493 6.66663Z" fill="white"/>
</svg>
