<svg width="30" height="30" viewBox="0 0 30 30" fill="none" xmlns="http://www.w3.org/2000/svg">
<rect x="-3.05176e-05" width="30" height="30" rx="15" fill="#8F8F9F"/>
<path fill-rule="evenodd" clip-rule="evenodd" d="M21.5214 9.52359C22.2354 9.71581 22.7983 10.2787 22.9905 10.9926C23.3475 12.2969 23.3337 15.0154 23.3337 15.0154C23.3337 15.0154 23.3337 17.7201 22.9905 19.0244C22.7983 19.7383 22.2354 20.3012 21.5214 20.4935C20.2171 20.8367 14.9999 20.8367 14.9999 20.8367C14.9999 20.8367 9.79646 20.8367 8.47843 20.4797C7.7645 20.2875 7.20159 19.7246 7.00937 19.0107C6.66614 17.7201 6.66614 15.0017 6.66614 15.0017C6.66614 15.0017 6.66614 12.2969 7.00937 10.9926C7.20159 10.2787 7.77823 9.70208 8.47843 9.50986C9.78273 9.16663 14.9999 9.16663 14.9999 9.16663C14.9999 9.16663 20.2171 9.16663 21.5214 9.52359ZM17.6769 15.0017L13.3384 17.5004V12.5029L17.6769 15.0017Z" fill="white"/>
</svg>
