<svg width="30" height="30" viewBox="0 0 30 30" fill="none" xmlns="http://www.w3.org/2000/svg">
<rect x="-3.05176e-05" width="30" height="30" rx="15" fill="#8F8F9F"/>
<path d="M21.6206 11.6533C21.6274 11.8 21.6274 11.94 21.6274 12.0867C21.6341 16.5334 18.1952 21.6667 11.9063 21.6667C10.0514 21.6667 8.23041 21.14 6.66664 20.1534C6.93742 20.1867 7.20821 20.2 7.47899 20.2C9.01568 20.2 10.5118 19.6934 11.7235 18.7534C10.2613 18.7267 8.97506 17.7867 8.52827 16.4134C9.04276 16.5134 9.57078 16.4934 10.0717 16.3534C8.48088 16.0467 7.33683 14.6667 7.33006 13.06C7.33006 13.0467 7.33006 13.0333 7.33006 13.02C7.80393 13.28 8.33872 13.4267 8.88029 13.44C7.38422 12.4533 6.91712 10.4867 7.82424 8.94667C9.56401 11.0533 12.1229 12.3267 14.8714 12.4667C14.5938 11.3 14.9729 10.0733 15.8597 9.24667C17.2339 7.97333 19.4002 8.04 20.6999 9.39333C21.4649 9.24667 22.2028 8.96667 22.873 8.57333C22.6157 9.35333 22.0809 10.0133 21.3701 10.4333C22.0471 10.3533 22.7105 10.1733 23.3333 9.90667C22.873 10.5867 22.2908 11.1733 21.6206 11.6533Z" fill="white"/>
</svg>
