<svg width="30" height="30" viewBox="0 0 30 30" fill="none" xmlns="http://www.w3.org/2000/svg">
<rect x="-3.05176e-05" width="30" height="30" rx="15" fill="#8F8F9F"/>
<path fill-rule="evenodd" clip-rule="evenodd" d="M15.0006 6.66663C12.7377 6.66663 12.4532 6.67655 11.5633 6.71625C10.6767 6.75595 10.0712 6.89821 9.5419 7.10332C8.99271 7.31506 8.52955 7.60288 8.06638 8.06605C7.60322 8.52921 7.3187 8.99569 7.10366 9.54156C6.89854 10.0709 6.75629 10.6763 6.71659 11.5663C6.67689 12.4529 6.66696 12.7374 6.66696 15.0003C6.66696 17.2632 6.67689 17.5477 6.71659 18.4376C6.75629 19.3243 6.89854 19.9297 7.10366 20.4623C7.31539 21.0115 7.60322 21.4747 8.06638 21.9378C8.52955 22.401 8.99602 22.6855 9.5419 22.9006C10.0712 23.1057 10.6767 23.2479 11.5666 23.2876C12.4565 23.3273 12.7377 23.3373 15.0039 23.3373C17.2701 23.3373 17.5513 23.3273 18.4413 23.2876C19.3279 23.2479 19.9333 23.1057 20.466 22.9006C21.0152 22.6888 21.4783 22.401 21.9415 21.9378C22.4047 21.4747 22.6892 21.0082 22.9042 20.4623C23.1093 19.933 23.2516 19.3276 23.2913 18.4376C23.331 17.5477 23.3409 17.2665 23.3409 15.0003C23.3409 12.7341 23.331 12.4529 23.2913 11.5629C23.2516 10.6763 23.1093 10.0709 22.9042 9.53825C22.6925 8.98907 22.4047 8.5259 21.9415 8.06274C21.4783 7.59957 21.0119 7.31506 20.466 7.10002C19.9367 6.8949 19.3312 6.75264 18.4413 6.71294C17.548 6.67655 17.2635 6.66663 15.0006 6.66663ZM15.0008 10.7226C12.6387 10.7226 10.7199 12.6381 10.7199 15.0035C10.7199 17.369 12.6354 19.2845 15.0008 19.2845C17.3663 19.2845 19.2818 17.369 19.2818 15.0035C19.2818 12.6381 17.3663 10.7226 15.0008 10.7226ZM15.0008 17.7792C13.4658 17.7792 12.2218 16.5353 12.2218 15.0002C12.2218 13.4652 13.4658 12.2212 15.0008 12.2212C16.5359 12.2212 17.7798 13.4652 17.7798 15.0002C17.7798 16.5353 16.5359 17.7792 15.0008 17.7792ZM20.4495 10.5506C20.4495 11.1024 20.0022 11.5497 19.4504 11.5497C18.8986 11.5497 18.4513 11.1024 18.4513 10.5506C18.4513 9.99882 18.8986 9.5515 19.4504 9.5515C20.0022 9.5515 20.4495 9.99882 20.4495 10.5506Z" fill="white"/>
</svg>
