<svg width="44" height="30" viewBox="0 0 44 30" fill="none" xmlns="http://www.w3.org/2000/svg">
<rect x="0.681854" y="0.5" width="42.6364" height="29" rx="3.5" fill="white" stroke="#F3F3F3"/>
<path d="M11.5639 8.46838H10.2336V21.7705H11.5639V8.46838Z" fill="black"/>
<path d="M13.4643 8.46838H12.7992V21.7705H13.4643V8.46838Z" fill="black"/>
<path d="M16.6948 8.46838H14.4669V21.7705H16.6948V8.46838Z" fill="black"/>
<path d="M19.6708 8.46838H17.5199V21.7705H19.6708V8.46838Z" fill="black"/>
<path d="M21.1605 8.46838H20.4954V21.7705H21.1605V8.46838Z" fill="black"/>
<path d="M23.7577 8.46838H22.4275V21.7705H23.7577V8.46838Z" fill="black"/>
<path d="M26.0196 8.46838H25.296V21.7705H26.0196V8.46838Z" fill="black"/>
<path d="M29.3924 8.46838H27.0546V21.7705H29.3924V8.46838Z" fill="black"/>
<path d="M32.4483 8.46838H30.3962V21.7705H32.4483V8.46838Z" fill="black"/>
<path d="M34.3006 8.46838H33.6743V21.7705H34.3006V8.46838Z" fill="black"/>
<path d="M8.58189 9.17975H7.45459V5.33452C7.45459 4.89941 7.80858 4.54541 8.2437 4.54541H12.0889V5.67271H8.58189V9.17975Z" fill="black"/>
<path d="M37.0798 9.17975H35.9525V5.67271H32.4454V4.54541H36.2907C36.7258 4.54541 37.0798 4.89941 37.0798 5.33452V9.17975Z" fill="black"/>
<path d="M12.0889 25.6935H8.2437C7.80858 25.6935 7.45459 25.3395 7.45459 24.9044V21.0592H8.58189V24.5662H12.0889V25.6935Z" fill="black"/>
<path d="M36.2907 25.6935H32.4454V24.5662H35.9525V21.0592H37.0798V24.9044C37.0798 25.3395 36.7258 25.6935 36.2907 25.6935Z" fill="black"/>
</svg>
