<svg width="20" height="20" viewBox="0 0 20 20" fill="none" xmlns="http://www.w3.org/2000/svg">
<g clip-path="url(#clip0_102_929)">
<path d="M18.3333 14.1V16.6C18.3342 16.8321 18.2867 17.0618 18.1937 17.2745C18.1008 17.4871 17.9644 17.678 17.7934 17.8349C17.6223 17.9918 17.4204 18.1113 17.2006 18.1856C16.9807 18.26 16.7478 18.2876 16.5166 18.2667C13.9523 17.9881 11.4891 17.1118 9.32497 15.7084C7.31149 14.4289 5.60442 12.7219 4.32497 10.7084C2.91662 8.53438 2.04017 6.0592 1.76664 3.48337C1.74581 3.25293 1.7732 3.02067 1.84705 2.80139C1.92091 2.58211 2.03961 2.38061 2.19561 2.20972C2.3516 2.03883 2.54147 1.9023 2.75313 1.80881C2.96478 1.71532 3.19359 1.66692 3.42497 1.66671H5.92497C6.32939 1.66273 6.72146 1.80594 7.0281 2.06965C7.33475 2.33336 7.53503 2.69958 7.59164 3.10004C7.69716 3.9001 7.89284 4.68565 8.17497 5.44171C8.28709 5.73998 8.31135 6.06414 8.24489 6.37577C8.17843 6.68741 8.02402 6.97347 7.79997 7.20004L6.74164 8.25837C7.92793 10.3447 9.65535 12.0721 11.7416 13.2584L12.8 12.2C13.0265 11.976 13.3126 11.8216 13.6242 11.7551C13.9359 11.6887 14.26 11.7129 14.5583 11.825C15.3144 12.1072 16.0999 12.3029 16.9 12.4084C17.3048 12.4655 17.6745 12.6694 17.9387 12.9813C18.203 13.2932 18.3434 13.6914 18.3333 14.1Z" stroke="#E93A7D" stroke-width="1.5" stroke-linecap="round" stroke-linejoin="round"/>
</g>
<defs>
<clipPath id="clip0_102_929">
<rect width="20" height="20" fill="white"/>
</clipPath>
</defs>
</svg>
