<svg width="30" height="30" viewBox="0 0 30 30" fill="none" xmlns="http://www.w3.org/2000/svg">
<rect width="30" height="30" rx="15" fill="#8F8F9F"/>
<path d="M18.75 7.5H11.25C9.17893 7.5 7.5 9.17893 7.5 11.25V18.75C7.5 20.8211 9.17893 22.5 11.25 22.5H18.75C20.8211 22.5 22.5 20.8211 22.5 18.75V11.25C22.5 9.17893 20.8211 7.5 18.75 7.5Z" stroke="white" stroke-width="1.5" stroke-linecap="round" stroke-linejoin="round"/>
<path d="M18 14.5275C18.0926 15.1517 17.986 15.7891 17.6953 16.3492C17.4047 16.9093 16.9449 17.3635 16.3812 17.6472C15.8176 17.9309 15.1789 18.0297 14.5559 17.9294C13.9329 17.8292 13.3573 17.535 12.9112 17.0889C12.465 16.6427 12.1708 16.0671 12.0706 15.4441C11.9703 14.8211 12.0691 14.1824 12.3528 13.6188C12.6365 13.0551 13.0907 12.5953 13.6508 12.3047C14.2109 12.014 14.8483 11.9074 15.4725 12C16.1092 12.0944 16.6987 12.3911 17.1538 12.8462C17.6089 13.3013 17.9056 13.8908 18 14.5275Z" stroke="white" stroke-width="1.5" stroke-linecap="round" stroke-linejoin="round"/>
<path d="M19.125 10.875H19.1325" stroke="white" stroke-width="1.5" stroke-linecap="round" stroke-linejoin="round"/>
</svg>
