<svg width="120" height="28" viewBox="0 0 120 28" fill="none" xmlns="http://www.w3.org/2000/svg">
<g clip-path="url(#clip0_15_404)">
<path d="M5.00769 21.162C4.06907 21.162 3.22095 20.9701 2.46336 20.5864C1.70577 20.2027 1.10619 19.6881 0.664629 19.0426C0.221523 18.3969 -3.05176e-05 17.672 -3.05176e-05 16.8681C-3.05176e-05 15.5582 0.514252 14.5152 1.54282 13.7389C2.57138 12.9626 3.91559 12.4433 5.57545 12.1809L9.28374 11.6171V11.0277C9.28374 10.2416 9.09429 9.63327 8.7154 9.20281C8.33651 8.77235 7.68683 8.55712 6.76639 8.55712C6.11691 8.55712 5.58909 8.69282 5.18292 8.96421C4.78553 9.22511 4.47031 9.60077 4.27602 10.045C4.13134 10.2883 3.92381 10.41 3.65342 10.41H1.51584C1.31701 10.41 1.16818 10.3538 1.06934 10.2415C0.97051 10.1291 0.920803 9.97939 0.920223 9.79224C0.938211 9.49316 1.06006 9.12819 1.28577 8.69733C1.51148 8.26647 1.85431 7.85015 2.31424 7.44837C2.77475 7.04599 3.37481 6.70439 4.11442 6.42356C4.85403 6.14274 5.7473 6.00233 6.79424 6.00233C7.93131 6.00233 8.89227 6.14745 9.67714 6.4377C10.462 6.72795 11.089 7.11629 11.5583 7.60272C12.0239 8.08393 12.376 8.67027 12.587 9.31594C12.8056 9.9845 12.9154 10.6861 12.912 11.392V20.2079C12.9123 20.2965 12.8957 20.3842 12.8631 20.4661C12.8306 20.548 12.7827 20.6224 12.7223 20.6851C12.6619 20.7477 12.5901 20.7973 12.5111 20.831C12.4321 20.8647 12.3475 20.8819 12.2621 20.8816H10.0697C9.87104 20.8816 9.71311 20.8161 9.59591 20.6851C9.47912 20.5561 9.41587 20.3847 9.41981 20.2079V19.1127C9.1852 19.4497 8.86907 19.7771 8.47141 20.0951C8.07376 20.413 7.591 20.6703 7.02314 20.8671C6.45567 21.0639 5.78386 21.1622 5.00769 21.162ZM5.92795 18.495C6.55944 18.495 7.13242 18.3545 7.64689 18.0737C8.16137 17.7929 8.56754 17.3577 8.86539 16.7682C9.16363 16.1791 9.31275 15.4353 9.31275 14.5369V13.9471L6.60595 14.3963C5.54083 14.5648 4.74678 14.8362 4.22379 15.2105C3.70081 15.5848 3.43883 16.0434 3.43787 16.5862C3.43787 16.9982 3.55962 17.3492 3.80312 17.6393C4.04663 17.9293 4.35793 18.1446 4.73701 18.2852C5.11936 18.4259 5.52228 18.4968 5.92795 18.495Z" fill="#482BE7"/>
<path d="M22.7375 27.0574C21.4198 27.0574 20.3367 26.8795 19.4882 26.5239C18.6397 26.1683 17.9724 25.7378 17.4864 25.2325C16.999 24.7274 16.6516 24.2268 16.4443 23.7305C16.237 23.2342 16.1241 22.8459 16.1057 22.5655C16.0877 22.3783 16.1464 22.2146 16.2818 22.0741C16.3427 22.0074 16.4161 21.9542 16.4975 21.918C16.579 21.8818 16.6667 21.8632 16.7553 21.8635H19.1105C19.2906 21.8635 19.4354 21.9056 19.5436 21.9899C19.6518 22.0741 19.7421 22.2285 19.8143 22.453C19.9389 22.7261 20.0837 22.9889 20.2474 23.2389C20.4277 23.5197 20.7028 23.7584 21.0728 23.955C21.4428 24.1515 21.9527 24.2497 22.6023 24.2495C23.288 24.2495 23.8654 24.1466 24.3346 23.9408C24.8039 23.735 25.1603 23.3888 25.404 22.9022C25.6477 22.4153 25.7695 21.7416 25.7693 20.8808V18.972C25.3362 19.515 24.7812 19.9549 24.1043 20.2917C23.4273 20.6285 22.5928 20.7969 21.6006 20.7969C20.6438 20.7969 19.8091 20.6331 19.0965 20.3056C18.384 19.978 17.793 19.5194 17.3236 18.9299C16.8542 18.3406 16.4978 17.6432 16.2543 16.8379C16.0108 16.0325 15.8709 15.1436 15.8347 14.1712C15.8168 13.6657 15.8168 13.1603 15.8347 12.655C15.8707 11.7197 16.0106 10.8494 16.2543 10.0443C16.498 9.23909 16.8544 8.53262 17.3236 7.92484C17.7927 7.31685 18.3836 6.84427 19.0965 6.50708C19.8095 6.16989 20.6441 6.00139 21.6006 6.00159C22.6291 6.00159 23.4953 6.20288 24.1992 6.60547C24.903 7.00805 25.4804 7.50862 25.9314 8.10717V6.98488C25.9314 6.77908 25.9946 6.61068 26.1209 6.4797C26.1806 6.41604 26.2523 6.36573 26.3315 6.33189C26.4107 6.29805 26.4957 6.28138 26.5813 6.28292H28.7737C28.8593 6.28146 28.9443 6.29816 29.0234 6.332C29.1025 6.36584 29.1742 6.4161 29.2339 6.4797C29.36 6.61088 29.4231 6.77928 29.4233 6.98488L29.4506 20.5162C29.4506 21.8637 29.2069 23.0241 28.7195 23.9974C28.2321 24.9706 27.4971 25.7239 26.5146 26.2573C25.5293 26.7905 24.2703 27.0572 22.7375 27.0574ZM22.6021 17.8203C23.3419 17.8203 23.9374 17.6519 24.3886 17.3151C24.8363 16.9826 25.1837 16.5249 25.3901 15.9954C25.6029 15.469 25.7309 14.91 25.769 14.3406C25.787 14.0976 25.7961 13.7888 25.7963 13.4141C25.7964 13.0394 25.7874 12.7401 25.769 12.516C25.7341 11.9411 25.606 11.3763 25.3901 10.8455C25.1786 10.3192 24.8323 9.86307 24.3886 9.52643C23.9372 9.18042 23.3417 9.00731 22.6021 9.00711C21.8624 9.00691 21.2669 9.18002 20.8155 9.52643C20.3681 9.8673 20.0327 10.3426 19.8546 10.8879C19.6653 11.4496 19.5524 12.0672 19.5161 12.7408C19.4798 13.1985 19.4798 13.6586 19.5161 14.1164C19.5468 14.7425 19.6607 15.3613 19.8546 15.9551C20.044 16.5262 20.3643 16.9801 20.8155 17.3169C21.2667 17.6537 21.8622 17.8218 22.6021 17.8212V17.8203Z" fill="#482BE7"/>
<path d="M39.1143 21.162C37.1111 21.162 35.523 20.5631 34.3499 19.3654C33.1769 18.1677 32.5453 16.4645 32.4552 14.2558C32.4368 14.0691 32.4278 13.8305 32.4282 13.54C32.4255 13.3104 32.4345 13.0808 32.4552 12.8522C32.5271 11.4302 32.8384 10.2091 33.3891 9.18867C33.9397 8.16828 34.7021 7.38227 35.6764 6.83066C36.6508 6.27884 37.7967 6.00273 39.1143 6.00233C40.5759 6.00233 41.803 6.31585 42.7956 6.94289C43.7882 7.56992 44.5371 8.44018 45.0423 9.55364C45.5475 10.6675 45.8001 11.9542 45.8001 13.4137V14.0034C45.8016 14.0921 45.7856 14.1803 45.753 14.2623C45.7204 14.3444 45.6719 14.4187 45.6106 14.4806C45.4841 14.6118 45.3218 14.6773 45.1235 14.6771H36.1365V14.9018C36.1543 15.5571 36.2761 16.1606 36.502 16.7122C36.7279 17.2639 37.0618 17.7084 37.5035 18.0457C37.9455 18.3827 38.4733 18.5512 39.087 18.5512C39.5922 18.5512 40.0163 18.4717 40.3595 18.3126C40.7026 18.1536 40.9822 17.971 41.1985 17.765C41.4149 17.5596 41.5683 17.3912 41.6586 17.2598C41.8211 17.035 41.9519 16.8993 42.0511 16.8527C42.1504 16.8062 42.2992 16.7828 42.4976 16.7826H44.8258C45.0061 16.7826 45.1549 16.8388 45.2723 16.9511C45.3289 17.0031 45.372 17.0687 45.398 17.1423C45.424 17.2158 45.432 17.2949 45.4212 17.3724C45.4032 17.672 45.2544 18.037 44.9747 18.4673C44.695 18.8975 44.2935 19.3188 43.7701 19.731C43.2465 20.143 42.5923 20.484 41.8074 20.754C41.0226 21.024 40.1248 21.16 39.1143 21.162ZM36.1365 12.319H42.1187V12.2345C42.1187 11.5046 42.0014 10.8635 41.7668 10.3113C41.5322 9.75904 41.1894 9.32858 40.7384 9.01988C40.2869 8.71117 39.7454 8.55682 39.1137 8.55682C38.482 8.55682 37.9404 8.71117 37.489 9.01988C37.0378 9.32878 36.6993 9.75924 36.4736 10.3113C36.2479 10.8633 36.1355 11.5044 36.1365 12.2345V12.319Z" fill="#482BE7"/>
<path d="M49.3203 20.8812C49.2349 20.8817 49.1502 20.8646 49.0712 20.831C48.9921 20.7973 48.9203 20.7478 48.8598 20.6851C48.7993 20.6225 48.7514 20.5481 48.7188 20.4662C48.6862 20.3843 48.6696 20.2965 48.6699 20.2079V6.95703C48.6696 6.86837 48.6861 6.78051 48.7187 6.69854C48.7513 6.61657 48.7992 6.5421 48.8597 6.47944C48.9201 6.41678 48.992 6.36716 49.0711 6.33345C49.1501 6.29974 49.2349 6.28261 49.3203 6.28305H51.54C51.6254 6.28273 51.7101 6.29995 51.789 6.33371C51.868 6.36747 51.9398 6.41711 52.0001 6.47976C52.0605 6.54241 52.1084 6.61684 52.1409 6.69875C52.1734 6.78066 52.19 6.86844 52.1896 6.95703V8.1079C52.6588 7.50914 53.2589 7.00858 53.9898 6.6062C54.7207 6.20382 55.6275 6.00253 56.7102 6.00233C57.8105 6.00233 58.767 6.25968 59.5795 6.77439C60.392 7.2891 61.0192 8.01432 61.4609 8.95007C61.9027 9.88621 62.1237 11.0095 62.1241 12.3199V20.2079C62.1245 20.2965 62.1079 20.3842 62.0753 20.4662C62.0428 20.5481 61.9949 20.6225 61.9345 20.6851C61.8741 20.7478 61.8023 20.7974 61.7233 20.8311C61.6443 20.8648 61.5597 20.8819 61.4742 20.8815H59.0924C59.0069 20.882 58.9222 20.8649 58.8431 20.8312C58.7641 20.7976 58.6922 20.748 58.6317 20.6853C58.5713 20.6227 58.5233 20.5483 58.4908 20.4663C58.4582 20.3843 58.4416 20.2965 58.4419 20.2079V12.4872C58.4419 11.4023 58.1847 10.5508 57.6702 9.93275C57.1558 9.31473 56.4111 9.00593 55.4363 9.00633C54.4979 9.00633 53.749 9.31514 53.1896 9.93275C52.6303 10.5504 52.3505 11.4019 52.3503 12.4872V20.2079C52.3507 20.2964 52.3341 20.3842 52.3016 20.4661C52.2691 20.548 52.2212 20.6224 52.1608 20.685C52.1005 20.7476 52.0287 20.7973 51.9497 20.831C51.8708 20.8647 51.7862 20.8819 51.7008 20.8815L49.3203 20.8812Z" fill="#482BE7"/>
<path d="M71.6513 21.162C70.352 21.162 69.2109 20.9093 68.2279 20.4041C67.245 19.8988 66.478 19.1642 65.927 18.2004C65.3764 17.2376 65.0741 16.0725 65.0201 14.705C65.0021 14.4242 64.9931 14.0546 64.9931 13.5963C64.9931 13.138 65.0021 12.7589 65.0201 12.4593C65.0743 11.0933 65.3766 9.92824 65.927 8.96421C66.4775 8.00019 67.2444 7.26563 68.2279 6.76055C69.2114 6.25507 70.3526 6.00233 71.6513 6.00233C72.806 6.00233 73.7895 6.16611 74.6018 6.49367C75.4141 6.82123 76.0814 7.24246 76.6036 7.75737C77.127 8.27228 77.5195 8.80565 77.7812 9.35747C78.0429 9.90928 78.1827 10.41 78.2007 10.8595C78.2183 11.0655 78.1597 11.2293 78.0249 11.3508C77.8944 11.4706 77.7254 11.5356 77.5512 11.5331H75.1699C74.9894 11.5331 74.8493 11.4868 74.7504 11.3929C74.6514 11.2991 74.5563 11.1591 74.466 10.9717C74.1953 10.2233 73.8389 9.69455 73.397 9.38545C72.955 9.07634 72.391 8.92199 71.705 8.92239C70.8025 8.92239 70.0853 9.21715 69.5532 9.80668C69.0211 10.3962 68.7368 11.3272 68.7003 12.5998C68.6636 13.2542 68.6636 13.9104 68.7003 14.5648C68.7362 15.8562 69.0204 16.792 69.5529 17.3721C70.0854 17.9522 70.8026 18.2423 71.7047 18.2425C72.4085 18.2425 72.977 18.0881 73.41 17.7792C73.8431 17.4703 74.195 16.9415 74.4658 16.1929C74.5559 16.0062 74.6507 15.8658 74.7501 15.7717C74.8495 15.6776 74.9894 15.6309 75.1699 15.6315H77.552C77.7263 15.6293 77.8952 15.6944 78.0258 15.8141C78.1612 15.9359 78.2198 16.0996 78.2016 16.3054C78.1832 16.6422 78.0975 17.0211 77.9446 17.4422C77.7916 17.8632 77.5481 18.2937 77.214 18.7336C76.8798 19.1736 76.4602 19.576 75.9552 19.9407C75.4502 20.3054 74.841 20.6001 74.1275 20.825C73.4148 21.0499 72.5894 21.1622 71.6513 21.162Z" fill="#482BE7"/>
<path d="M81.5581 3.86986C81.4727 3.87022 81.3881 3.85304 81.3091 3.81932C81.2301 3.78559 81.1583 3.73599 81.0979 3.67337C81.0375 3.61074 80.9897 3.53634 80.9571 3.45444C80.9246 3.37254 80.908 3.28477 80.9083 3.19619V1.17366C80.9068 1.0849 80.9229 0.99676 80.9555 0.914687C80.9881 0.832614 81.0366 0.758345 81.098 0.696461C81.1577 0.632877 81.2293 0.582643 81.3085 0.548852C81.3876 0.515062 81.4726 0.498432 81.5581 0.499985H84.0212C84.2196 0.499985 84.3821 0.565878 84.5086 0.696461C84.5698 0.758446 84.6182 0.832741 84.6508 0.914795C84.6833 0.996849 84.6994 1.08494 84.698 1.17366V3.19499C84.6995 3.28373 84.6835 3.37184 84.6509 3.45391C84.6183 3.53598 84.5699 3.61026 84.5086 3.67219C84.3821 3.80337 84.2196 3.86886 84.0212 3.86866L81.5581 3.86986ZM81.6663 20.8823C81.5809 20.8827 81.4962 20.8655 81.4171 20.8317C81.3381 20.7979 81.2663 20.7482 81.2059 20.6855C81.1455 20.6228 81.0977 20.5483 81.0653 20.4663C81.0328 20.3843 81.0163 20.2964 81.0168 20.2078V6.95692C81.0164 6.86833 81.033 6.78055 81.0655 6.69864C81.098 6.61673 81.1459 6.5423 81.2062 6.47965C81.2666 6.417 81.3384 6.36736 81.4173 6.3336C81.4963 6.29984 81.5809 6.28262 81.6663 6.28294H83.913C84.1114 6.28294 84.2693 6.34853 84.3867 6.47972C84.5032 6.60887 84.5663 6.78014 84.5625 6.95692V20.2078C84.5664 20.3846 84.5033 20.5559 84.3867 20.685C84.2691 20.8161 84.1112 20.8816 83.913 20.8814L81.6663 20.8823Z" fill="#482BE7"/>
<path d="M92.2499 21.162C91.3114 21.162 90.4632 20.9701 89.7053 20.5864C88.9473 20.2027 88.3473 19.6881 87.9054 19.0426C87.463 18.3969 87.242 17.6716 87.2422 16.8669C87.2422 15.557 87.7565 14.514 88.7853 13.7377C89.8141 12.9614 91.1583 12.4421 92.8179 12.1797L96.5262 11.6183V11.0277C96.5262 10.2416 96.3368 9.63327 95.9579 9.20281C95.579 8.77235 94.9293 8.55712 94.0089 8.55712C93.3594 8.55712 92.8316 8.69282 92.4254 8.96421C92.028 9.22511 91.7128 9.60077 91.5185 10.045C91.374 10.2883 91.1665 10.41 90.8959 10.41H88.7574C88.5588 10.41 88.41 10.3538 88.311 10.2415C88.2119 10.1291 88.1623 9.97939 88.1621 9.79224C88.1797 9.49316 88.3015 9.12819 88.5274 8.69733C88.7533 8.26647 89.0962 7.85015 89.5561 7.44837C90.0163 7.04599 90.6163 6.70439 91.3563 6.42356C92.0963 6.14274 92.9896 6.00233 94.0361 6.00233C95.1728 6.00233 96.1337 6.14745 96.9187 6.4377C97.7038 6.72795 98.3309 7.11629 98.8001 7.60272C99.2661 8.08377 99.6183 8.67016 99.8292 9.31594C100.048 9.98447 100.158 10.6861 100.154 11.392V20.2079C100.154 20.2965 100.138 20.3842 100.105 20.4661C100.073 20.548 100.025 20.6224 99.9646 20.685C99.9043 20.7477 99.8325 20.7973 99.7535 20.831C99.6746 20.8647 99.59 20.8819 99.5046 20.8816H97.3118C97.113 20.8816 96.9551 20.8161 96.8381 20.6851C96.7214 20.5561 96.6582 20.3847 96.6623 20.2079V19.1127C96.4275 19.4497 96.1116 19.7771 95.7147 20.0951C95.3179 20.413 94.8352 20.6703 94.2668 20.8671C93.6979 21.0639 93.0256 21.1622 92.2499 21.162ZM93.1701 18.495C93.8014 18.495 94.3744 18.3545 94.8891 18.0737C95.4037 17.7929 95.8099 17.3577 96.1076 16.7682C96.4054 16.1787 96.5543 15.4348 96.5543 14.5366V13.9468L93.8473 14.396C92.7835 14.5645 91.9895 14.8359 91.4654 15.2102C90.9413 15.5845 90.6796 16.0431 90.6803 16.5859C90.6803 16.9979 90.8022 17.3489 91.0459 17.6389C91.2896 17.929 91.6009 18.1443 91.9798 18.2849C92.3619 18.4256 92.7646 18.4967 93.1701 18.495Z" fill="#482BE7"/>
<path d="M113.044 0.517952H111.099C111.016 0.517913 110.933 0.534935 110.856 0.568047C110.779 0.601159 110.709 0.649712 110.649 0.710931C110.59 0.77215 110.544 0.844837 110.512 0.924839C110.48 1.00484 110.463 1.09059 110.463 1.17719V8.15495L105.777 0.813118C105.719 0.722261 105.64 0.647748 105.547 0.596241C105.454 0.544733 105.351 0.517836 105.246 0.517952H103.302C103.218 0.517913 103.136 0.534935 103.059 0.568047C102.981 0.601159 102.911 0.649712 102.852 0.710931C102.793 0.77215 102.746 0.844837 102.714 0.924839C102.682 1.00484 102.666 1.09059 102.666 1.17719V13.495C102.666 13.5816 102.682 13.6674 102.714 13.7474C102.746 13.8274 102.793 13.9001 102.852 13.9613C102.911 14.0225 102.981 14.071 103.059 14.1042C103.136 14.1373 103.218 14.1543 103.302 14.1542H105.246C105.329 14.1542 105.412 14.1372 105.489 14.1041C105.566 14.0709 105.636 14.0224 105.695 13.9612C105.754 13.8999 105.801 13.8273 105.833 13.7473C105.865 13.6673 105.881 13.5816 105.881 13.495V6.50311L110.569 13.8591C110.627 13.95 110.705 14.0247 110.798 14.0763C110.891 14.1279 110.994 14.1549 111.099 14.1549H113.044C113.213 14.1549 113.375 14.0854 113.494 13.9618C113.613 13.8381 113.68 13.6705 113.68 13.4956V1.17719C113.68 1.00235 113.613 0.834668 113.494 0.711037C113.375 0.587407 113.213 0.517952 113.044 0.517952Z" fill="#E93A7D"/>
<path d="M119.364 0.505501H115.815C115.647 0.505501 115.485 0.574956 115.366 0.698586C115.247 0.822216 115.18 0.989895 115.18 1.16473V3.00553C115.18 3.0921 115.196 3.17783 115.228 3.25781C115.26 3.33779 115.307 3.41046 115.366 3.47168C115.485 3.59531 115.647 3.66476 115.815 3.66476H116.767V13.4952C116.767 13.5818 116.783 13.6675 116.815 13.7475C116.847 13.8274 116.894 13.9001 116.953 13.9613C117.012 14.0226 117.082 14.0711 117.159 14.1042C117.236 14.1374 117.319 14.1544 117.402 14.1544H119.365C119.448 14.1545 119.531 14.1374 119.608 14.1043C119.685 14.0712 119.755 14.0227 119.814 13.9614C119.873 13.9002 119.92 13.8275 119.952 13.7475C119.984 13.6675 120.001 13.5818 120.001 13.4952V1.16473C120.001 1.07811 119.984 0.992339 119.952 0.912317C119.92 0.832296 119.873 0.759596 119.814 0.698373C119.755 0.63715 119.685 0.588604 119.608 0.555509C119.531 0.522415 119.448 0.505422 119.364 0.505501Z" fill="#E93A7D"/>
<path d="M34.9354 4.69551C34.6646 4.69551 34.5292 4.57385 34.5292 4.33054C34.5292 4.1811 34.6194 4.02203 34.7999 3.85334L37.4255 1.0461C37.6057 0.840301 37.7636 0.71393 37.8992 0.666992C38.0435 0.619005 38.1942 0.595335 38.3457 0.596887H39.8076C39.9639 0.593187 40.1197 0.616889 40.2683 0.666992C40.3942 0.71393 40.5476 0.840301 40.7285 1.0461L43.3813 3.85334C43.5436 4.02183 43.6247 4.1809 43.6247 4.33054C43.6247 4.57385 43.4893 4.69551 43.2185 4.69551H42.2171C42.0717 4.69555 41.9267 4.68144 41.7839 4.65338C41.6411 4.6261 41.5037 4.57391 41.3777 4.49903L39.0768 3.01117L36.7762 4.49903C36.657 4.57781 36.5233 4.62996 36.3837 4.65218C36.2362 4.67981 36.0867 4.6939 35.9369 4.6943L34.9354 4.69551Z" fill="#E93A7D"/>
</g>
<defs>
<clipPath id="clip0_15_404">
<rect width="120" height="26.5574" fill="white" transform="translate(-3.05176e-05 0.5)"/>
</clipPath>
</defs>
</svg>
