<svg width="19" height="18" viewBox="0 0 19 18" fill="none" xmlns="http://www.w3.org/2000/svg">
<path d="M2.74997 1.5V6H7.24997" stroke="white" stroke-width="1.5" stroke-linecap="round" stroke-linejoin="round"/>
<path d="M16.25 9C16.2488 7.69749 15.8708 6.42314 15.1615 5.33066C14.4523 4.23817 13.4421 3.37423 12.2528 2.84302C11.0636 2.31181 9.74601 2.13604 8.45907 2.33689C7.17214 2.53775 5.97081 3.10666 4.99997 3.975L2.74997 6" stroke="white" stroke-width="1.5" stroke-linecap="round" stroke-linejoin="round"/>
<path d="M16.25 16.5V12H11.75" stroke="white" stroke-width="1.5" stroke-linecap="round" stroke-linejoin="round"/>
<path d="M2.74997 9C2.75116 10.3025 3.12917 11.5769 3.83841 12.6693C4.54765 13.7618 5.55783 14.6258 6.7471 15.157C7.93637 15.6882 9.25393 15.864 10.5409 15.6631C11.8278 15.4623 13.0291 14.8933 14 14.025L16.25 12" stroke="white" stroke-width="1.5" stroke-linecap="round" stroke-linejoin="round"/>
</svg>
