<svg width="40" height="40" viewBox="0 0 40 40" fill="none" xmlns="http://www.w3.org/2000/svg">
<rect x="0.749969" y="0.75" width="38.5" height="38.5" rx="19.25" fill="#EDEDED" stroke="#D2D1D7" stroke-width="1.5"/>
<path d="M15.4032 24.9999V22.9199H9.88319V21.2879L15.1312 13.7999H17.4512V21.1439H18.9232V22.9199H17.4512V24.9999H15.4032ZM12.0752 21.1439H15.5312V16.0559L12.0752 21.1439ZM25.1252 25.1919C24.0905 25.1919 23.2052 24.9519 22.4692 24.4719C21.7332 23.9812 21.1625 23.3039 20.7572 22.4399C20.3625 21.5652 20.1652 20.5519 20.1652 19.3999C20.1652 18.2586 20.3625 17.2506 20.7572 16.3759C21.1625 15.5012 21.7332 14.8239 22.4692 14.3439C23.2052 13.8532 24.0905 13.6079 25.1252 13.6079C26.1599 13.6079 27.0452 13.8532 27.7812 14.3439C28.5172 14.8239 29.0825 15.5012 29.4772 16.3759C29.8825 17.2506 30.0852 18.2586 30.0852 19.3999C30.0852 20.5519 29.8825 21.5652 29.4772 22.4399C29.0825 23.3039 28.5172 23.9812 27.7812 24.4719C27.0452 24.9519 26.1599 25.1919 25.1252 25.1919ZM25.1252 23.3519C25.9679 23.3519 26.6559 22.9999 27.1892 22.2959C27.7225 21.5919 27.9892 20.6266 27.9892 19.3999C27.9892 18.1732 27.7225 17.2079 27.1892 16.5039C26.6559 15.7999 25.9679 15.4479 25.1252 15.4479C24.2719 15.4479 23.5785 15.7999 23.0452 16.5039C22.5225 17.2079 22.2612 18.1732 22.2612 19.3999C22.2612 20.6266 22.5225 21.5919 23.0452 22.2959C23.5785 22.9999 24.2719 23.3519 25.1252 23.3519Z" fill="#D2D1D7"/>
<line x1="5.80808" y1="6.91918" x2="33.0808" y2="34.1919" stroke="#D2D1D7"/>
</svg>
